{"asset":{"version":"2.0","generator":"obj-to-plant-gltf.js (HumanityOS, Quaternius CC0 source)"},"scene":0,"scenes":[{"nodes":[0]}],"nodes":[{"mesh":0,"name":"beet_1"}],"meshes":[{"name":"beet_1","primitives":[{"attributes":{"POSITION":0,"NORMAL":1,"TEXCOORD_0":2},"indices":3,"material":0}]}],"materials":[{"name":"palette","pbrMetallicRoughness":{"baseColorTexture":{"index":0},"metallicFactor":0,"roughnessFactor":0.9}}],"textures":[{"sampler":0,"source":0}],"samplers":[{"magFilter":9728,"minFilter":9728,"wrapS":33071,"wrapT":33071}],"images":[{"uri":"beet_1_palette.png"}],"buffers":[{"uri":"beet_1.bin","byteLength":9164}],"bufferViews":[{"buffer":0,"byteOffset":0,"byteLength":2892},{"buffer":0,"byteOffset":2892,"byteLength":2892},{"buffer":0,"byteOffset":5784,"byteLength":1928},{"buffer":0,"byteOffset":7712,"byteLength":1452}],"accessors":[{"bufferView":0,"componentType":5126,"count":241,"type":"VEC3","min":[-0.163033,-0.030997,-0.07594],"max":[0.170913,0.621687,0.021637]},{"bufferView":1,"componentType":5126,"count":241,"type":"VEC3"},{"bufferView":2,"componentType":5126,"count":241,"type":"VEC2"},{"bufferView":3,"componentType":5125,"count":363,"type":"SCALAR"}]}