{
  "asset": {
    "generator": "HumanityOS scripts/repack-plant-gltf.js --split (one variant, base re-centered, transforms baked)",
    "version": "2.0"
  },
  "scene": 0,
  "scenes": [
    {
      "name": "Scene",
      "nodes": [
        0
      ]
    }
  ],
  "nodes": [
    {
      "mesh": 0,
      "name": "fern_02_v1"
    }
  ],
  "meshes": [
    {
      "name": "fern_02_v1",
      "primitives": [
        {
          "attributes": {
            "POSITION": 0,
            "NORMAL": 1,
            "TEXCOORD_0": 2
          },
          "indices": 3,
          "mode": 4,
          "material": 0
        }
      ]
    }
  ],
  "accessors": [
    {
      "bufferView": 0,
      "componentType": 5126,
      "count": 1660,
      "type": "VEC3",
      "min": [
        -0.40107661485671997,
        -0.030510280281305313,
        -0.4349215030670166
      ],
      "max": [
        0.5886707901954651,
        0.39718443155288696,
        0.45876821875572205
      ]
    },
    {
      "bufferView": 1,
      "componentType": 5126,
      "count": 1660,
      "type": "VEC3"
    },
    {
      "bufferView": 2,
      "componentType": 5126,
      "count": 1660,
      "type": "VEC2"
    },
    {
      "bufferView": 3,
      "componentType": 5123,
      "count": 7152,
      "type": "SCALAR"
    }
  ],
  "bufferViews": [
    {
      "buffer": 0,
      "byteOffset": 0,
      "byteLength": 19920,
      "target": 34962
    },
    {
      "buffer": 0,
      "byteOffset": 19920,
      "byteLength": 19920,
      "target": 34962
    },
    {
      "buffer": 0,
      "byteOffset": 39840,
      "byteLength": 13280,
      "target": 34962
    },
    {
      "buffer": 0,
      "byteOffset": 53120,
      "byteLength": 14304,
      "target": 34963
    }
  ],
  "buffers": [
    {
      "byteLength": 67424,
      "uri": "fern_02_v1.bin"
    }
  ],
  "materials": [
    {
      "name": "fern_02",
      "pbrMetallicRoughness": {
        "baseColorTexture": {
          "index": 0
        },
        "metallicFactor": 0
      },
      "alphaMode": "MASK",
      "alphaCutoff": 0.5,
      "doubleSided": true
    }
  ],
  "textures": [
    {
      "sampler": 0,
      "source": 0
    }
  ],
  "images": [
    {
      "mimeType": "image/jpeg",
      "uri": "textures/fern_02_diff_2k.jpg"
    }
  ],
  "samplers": [
    {
      "magFilter": 9729,
      "minFilter": 9987
    }
  ]
}
