{
  "asset": {
    "generator": "HumanityOS scripts/repack-plant-gltf.js --split (one variant, base re-centered, transforms baked)",
    "version": "2.0"
  },
  "scene": 0,
  "scenes": [
    {
      "name": "Scene",
      "nodes": [
        0
      ]
    }
  ],
  "nodes": [
    {
      "mesh": 0,
      "name": "fern_02_v2"
    }
  ],
  "meshes": [
    {
      "name": "fern_02_v2",
      "primitives": [
        {
          "attributes": {
            "POSITION": 0,
            "NORMAL": 1,
            "TEXCOORD_0": 2
          },
          "indices": 3,
          "mode": 4,
          "material": 0
        }
      ]
    }
  ],
  "accessors": [
    {
      "bufferView": 0,
      "componentType": 5126,
      "count": 544,
      "type": "VEC3",
      "min": [
        -0.30576565861701965,
        -0.028773518279194832,
        -0.2754572033882141
      ],
      "max": [
        0.24617494642734528,
        0.2580300271511078,
        0.33796387910842896
      ]
    },
    {
      "bufferView": 1,
      "componentType": 5126,
      "count": 544,
      "type": "VEC3"
    },
    {
      "bufferView": 2,
      "componentType": 5126,
      "count": 544,
      "type": "VEC2"
    },
    {
      "bufferView": 3,
      "componentType": 5123,
      "count": 2352,
      "type": "SCALAR"
    }
  ],
  "bufferViews": [
    {
      "buffer": 0,
      "byteOffset": 0,
      "byteLength": 6528,
      "target": 34962
    },
    {
      "buffer": 0,
      "byteOffset": 6528,
      "byteLength": 6528,
      "target": 34962
    },
    {
      "buffer": 0,
      "byteOffset": 13056,
      "byteLength": 4352,
      "target": 34962
    },
    {
      "buffer": 0,
      "byteOffset": 17408,
      "byteLength": 4704,
      "target": 34963
    }
  ],
  "buffers": [
    {
      "byteLength": 22112,
      "uri": "fern_02_v2.bin"
    }
  ],
  "materials": [
    {
      "name": "fern_02",
      "pbrMetallicRoughness": {
        "baseColorTexture": {
          "index": 0
        },
        "metallicFactor": 0
      },
      "alphaMode": "MASK",
      "alphaCutoff": 0.5,
      "doubleSided": true
    }
  ],
  "textures": [
    {
      "sampler": 0,
      "source": 0
    }
  ],
  "images": [
    {
      "mimeType": "image/jpeg",
      "uri": "textures/fern_02_diff_2k.jpg"
    }
  ],
  "samplers": [
    {
      "magFilter": 9729,
      "minFilter": 9987
    }
  ]
}
