{"asset":{"version":"2.0","generator":"obj-to-plant-gltf.js (HumanityOS, Quaternius CC0 source)"},"scene":0,"scenes":[{"nodes":[0]}],"nodes":[{"mesh":0,"name":"palmtree_3"}],"meshes":[{"name":"palmtree_3","primitives":[{"attributes":{"POSITION":0,"NORMAL":1,"TEXCOORD_0":2},"indices":3,"material":0}]}],"materials":[{"name":"palette","pbrMetallicRoughness":{"baseColorTexture":{"index":0},"metallicFactor":0,"roughnessFactor":0.9}}],"textures":[{"sampler":0,"source":0}],"samplers":[{"magFilter":9728,"minFilter":9728,"wrapS":33071,"wrapT":33071}],"images":[{"uri":"palmtree_3_palette.png"}],"buffers":[{"uri":"palmtree_3.bin","byteLength":93872}],"bufferViews":[{"buffer":0,"byteOffset":0,"byteLength":29712},{"buffer":0,"byteOffset":29712,"byteLength":29712},{"buffer":0,"byteOffset":59424,"byteLength":19808},{"buffer":0,"byteOffset":79232,"byteLength":14640}],"accessors":[{"bufferView":0,"componentType":5126,"count":2476,"type":"VEC3","min":[-0.528357,-0.027124,-0.85696],"max":[0.782465,2.205229,0.771932]},{"bufferView":1,"componentType":5126,"count":2476,"type":"VEC3"},{"bufferView":2,"componentType":5126,"count":2476,"type":"VEC2"},{"bufferView":3,"componentType":5125,"count":3660,"type":"SCALAR"}]}