{"asset":{"generator":"HumanityOS scripts/repack-plant-gltf.js --split (one variant, base re-centered, transforms baked)","version":"2.0"},"scene":0,"scenes":[{"name":"Scene","nodes":[0]}],"nodes":[{"mesh":0,"name":"fir_sapling_v3"}],"meshes":[{"name":"fir_sapling_v3","primitives":[{"attributes":{"POSITION":0,"NORMAL":1,"TEXCOORD_0":2},"indices":3,"mode":4,"material":0}]}],"accessors":[{"bufferView":0,"componentType":5126,"count":148413,"type":"VEC3","min":[-0.31528860330581665,-0.00007270835340023041,-0.3205861747264862],"max":[0.3069007992744446,0.735627293586731,0.31341904401779175]},{"bufferView":1,"componentType":5126,"count":148413,"type":"VEC3"},{"bufferView":2,"componentType":5126,"count":148413,"type":"VEC2"},{"bufferView":3,"componentType":5125,"count":374229,"type":"SCALAR"}],"bufferViews":[{"buffer":0,"byteOffset":0,"byteLength":1780956,"target":34962},{"buffer":0,"byteOffset":1780956,"byteLength":1780956,"target":34962},{"buffer":0,"byteOffset":3561912,"byteLength":1187304,"target":34962},{"buffer":0,"byteOffset":4749216,"byteLength":1496916,"target":34963}],"buffers":[{"byteLength":6246132,"uri":"fir_sapling_v3.bin"}],"materials":[{"name":"fir_sapling_twigs","pbrMetallicRoughness":{"baseColorTexture":{"index":0},"metallicFactor":0},"doubleSided":true}],"textures":[{"sampler":0,"source":0}],"images":[{"mimeType":"image/png","uri":"textures/fir_sapling_twigs_diff_a_1k.png"}],"samplers":[{"magFilter":9729,"minFilter":9987}]}