{
  "asset": {
    "generator": "HumanityOS scripts/repack-plant-gltf.js --split (one variant, base re-centered, transforms baked)",
    "version": "2.0"
  },
  "scene": 0,
  "scenes": [
    {
      "name": "Scene",
      "nodes": [
        0
      ]
    }
  ],
  "nodes": [
    {
      "mesh": 0,
      "name": "fir_sapling_v2"
    }
  ],
  "meshes": [
    {
      "name": "fir_sapling_v2",
      "primitives": [
        {
          "attributes": {
            "POSITION": 0,
            "NORMAL": 1,
            "TEXCOORD_0": 2
          },
          "indices": 3,
          "mode": 4,
          "material": 0
        }
      ]
    }
  ],
  "accessors": [
    {
      "bufferView": 0,
      "componentType": 5126,
      "count": 179580,
      "type": "VEC3",
      "min": [
        -0.3243735730648041,
        -0.000009949319064617157,
        -0.43118488788604736
      ],
      "max": [
        0.3155374825000763,
        0.9515835642814636,
        0.38637542724609375
      ]
    },
    {
      "bufferView": 1,
      "componentType": 5126,
      "count": 179580,
      "type": "VEC3"
    },
    {
      "bufferView": 2,
      "componentType": 5126,
      "count": 179580,
      "type": "VEC2"
    },
    {
      "bufferView": 3,
      "componentType": 5125,
      "count": 452628,
      "type": "SCALAR"
    }
  ],
  "bufferViews": [
    {
      "buffer": 0,
      "byteOffset": 0,
      "byteLength": 2154960,
      "target": 34962
    },
    {
      "buffer": 0,
      "byteOffset": 2154960,
      "byteLength": 2154960,
      "target": 34962
    },
    {
      "buffer": 0,
      "byteOffset": 4309920,
      "byteLength": 1436640,
      "target": 34962
    },
    {
      "buffer": 0,
      "byteOffset": 5746560,
      "byteLength": 1810512,
      "target": 34963
    }
  ],
  "buffers": [
    {
      "byteLength": 7557072,
      "uri": "fir_sapling_v2.bin"
    }
  ],
  "materials": [
    {
      "name": "fir_sapling_twigs",
      "pbrMetallicRoughness": {
        "baseColorTexture": {
          "index": 0
        },
        "metallicFactor": 0
      },
      "doubleSided": true
    }
  ],
  "textures": [
    {
      "sampler": 0,
      "source": 0
    }
  ],
  "images": [
    {
      "mimeType": "image/jpeg",
      "uri": "textures/fir_sapling_twigs_diff_1k.jpg"
    }
  ],
  "samplers": [
    {
      "magFilter": 9729,
      "minFilter": 9987
    }
  ]
}
