{"asset":{"version":"2.0","generator":"obj-to-plant-gltf.js (HumanityOS, Quaternius CC0 source)"},"scene":0,"scenes":[{"nodes":[0]}],"nodes":[{"mesh":0,"name":"apple_crop"}],"meshes":[{"name":"apple_crop","primitives":[{"attributes":{"POSITION":0,"NORMAL":1,"TEXCOORD_0":2},"indices":3,"material":0}]}],"materials":[{"name":"palette","pbrMetallicRoughness":{"baseColorTexture":{"index":0},"metallicFactor":0,"roughnessFactor":0.9}}],"textures":[{"sampler":0,"source":0}],"samplers":[{"magFilter":9728,"minFilter":9728,"wrapS":33071,"wrapT":33071}],"images":[{"uri":"apple_crop_palette.png"}],"buffers":[{"uri":"apple_crop.bin","byteLength":32864}],"bufferViews":[{"buffer":0,"byteOffset":0,"byteLength":10344},{"buffer":0,"byteOffset":10344,"byteLength":10344},{"buffer":0,"byteOffset":20688,"byteLength":6896},{"buffer":0,"byteOffset":27584,"byteLength":5280}],"accessors":[{"bufferView":0,"componentType":5126,"count":862,"type":"VEC3","min":[-0.078761,-0.077744,-0.079125],"max":[0.078761,0.090237,0.079136]},{"bufferView":1,"componentType":5126,"count":862,"type":"VEC3"},{"bufferView":2,"componentType":5126,"count":862,"type":"VEC2"},{"bufferView":3,"componentType":5125,"count":1320,"type":"SCALAR"}]}