{"asset":{"version":"2.0","generator":"obj-to-plant-gltf.js (HumanityOS, Quaternius CC0 source)"},"scene":0,"scenes":[{"nodes":[0]}],"nodes":[{"mesh":0,"name":"palmtree_harvested"}],"meshes":[{"name":"palmtree_harvested","primitives":[{"attributes":{"POSITION":0,"NORMAL":1,"TEXCOORD_0":2},"indices":3,"material":0}]}],"materials":[{"name":"palette","pbrMetallicRoughness":{"baseColorTexture":{"index":0},"metallicFactor":0,"roughnessFactor":0.9}}],"textures":[{"sampler":0,"source":0}],"samplers":[{"magFilter":9728,"minFilter":9728,"wrapS":33071,"wrapT":33071}],"images":[{"uri":"palmtree_harvested_palette.png"}],"buffers":[{"uri":"palmtree_harvested.bin","byteLength":136464}],"bufferViews":[{"buffer":0,"byteOffset":0,"byteLength":43200},{"buffer":0,"byteOffset":43200,"byteLength":43200},{"buffer":0,"byteOffset":86400,"byteLength":28800},{"buffer":0,"byteOffset":115200,"byteLength":21264}],"accessors":[{"bufferView":0,"componentType":5126,"count":3600,"type":"VEC3","min":[-0.663334,-0.017273,-1.075884],"max":[1.149833,3.233284,0.969134]},{"bufferView":1,"componentType":5126,"count":3600,"type":"VEC3"},{"bufferView":2,"componentType":5126,"count":3600,"type":"VEC2"},{"bufferView":3,"componentType":5125,"count":5316,"type":"SCALAR"}]}