{"asset":{"version":"2.0","generator":"obj-to-plant-gltf.js (HumanityOS, Quaternius CC0 source)"},"scene":0,"scenes":[{"nodes":[0]}],"nodes":[{"mesh":0,"name":"bamboo_4"}],"meshes":[{"name":"bamboo_4","primitives":[{"attributes":{"POSITION":0,"NORMAL":1,"TEXCOORD_0":2},"indices":3,"material":0}]}],"materials":[{"name":"palette","pbrMetallicRoughness":{"baseColorTexture":{"index":0},"metallicFactor":0,"roughnessFactor":0.9}}],"textures":[{"sampler":0,"source":0}],"samplers":[{"magFilter":9728,"minFilter":9728,"wrapS":33071,"wrapT":33071}],"images":[{"uri":"bamboo_4_palette.png"}],"buffers":[{"uri":"bamboo_4.bin","byteLength":45424}],"bufferViews":[{"buffer":0,"byteOffset":0,"byteLength":14136},{"buffer":0,"byteOffset":14136,"byteLength":14136},{"buffer":0,"byteOffset":28272,"byteLength":9424},{"buffer":0,"byteOffset":37696,"byteLength":7728}],"accessors":[{"bufferView":0,"componentType":5126,"count":1178,"type":"VEC3","min":[-0.237842,-0.032933,-0.264187],"max":[0.292087,2.693193,0.293996]},{"bufferView":1,"componentType":5126,"count":1178,"type":"VEC3"},{"bufferView":2,"componentType":5126,"count":1178,"type":"VEC2"},{"bufferView":3,"componentType":5125,"count":1932,"type":"SCALAR"}]}