{"asset":{"version":"2.0","generator":"obj-to-plant-gltf.js (HumanityOS, Quaternius CC0 source)"},"scene":0,"scenes":[{"nodes":[0]}],"nodes":[{"mesh":0,"name":"corn_2"}],"meshes":[{"name":"corn_2","primitives":[{"attributes":{"POSITION":0,"NORMAL":1,"TEXCOORD_0":2},"indices":3,"material":0}]}],"materials":[{"name":"palette","pbrMetallicRoughness":{"baseColorTexture":{"index":0},"metallicFactor":0,"roughnessFactor":0.9}}],"textures":[{"sampler":0,"source":0}],"samplers":[{"magFilter":9728,"minFilter":9728,"wrapS":33071,"wrapT":33071}],"images":[{"uri":"corn_2_palette.png"}],"buffers":[{"uri":"corn_2.bin","byteLength":10832}],"bufferViews":[{"buffer":0,"byteOffset":0,"byteLength":3432},{"buffer":0,"byteOffset":3432,"byteLength":3432},{"buffer":0,"byteOffset":6864,"byteLength":2288},{"buffer":0,"byteOffset":9152,"byteLength":1680}],"accessors":[{"bufferView":0,"componentType":5126,"count":286,"type":"VEC3","min":[-0.094285,-0.000055,-0.134392],"max":[0.189454,0.65863,0.170754]},{"bufferView":1,"componentType":5126,"count":286,"type":"VEC3"},{"bufferView":2,"componentType":5126,"count":286,"type":"VEC2"},{"bufferView":3,"componentType":5125,"count":420,"type":"SCALAR"}]}