{"asset":{"version":"2.0","generator":"obj-to-plant-gltf.js (HumanityOS, Quaternius CC0 source)"},"scene":0,"scenes":[{"nodes":[0]}],"nodes":[{"mesh":0,"name":"bushberries_crop"}],"meshes":[{"name":"bushberries_crop","primitives":[{"attributes":{"POSITION":0,"NORMAL":1,"TEXCOORD_0":2},"indices":3,"material":0}]}],"materials":[{"name":"palette","pbrMetallicRoughness":{"baseColorTexture":{"index":0},"metallicFactor":0,"roughnessFactor":0.9}}],"textures":[{"sampler":0,"source":0}],"samplers":[{"magFilter":9728,"minFilter":9728,"wrapS":33071,"wrapT":33071}],"images":[{"uri":"bushberries_crop_palette.png"}],"buffers":[{"uri":"bushberries_crop.bin","byteLength":3648}],"bufferViews":[{"buffer":0,"byteOffset":0,"byteLength":1152},{"buffer":0,"byteOffset":1152,"byteLength":1152},{"buffer":0,"byteOffset":2304,"byteLength":768},{"buffer":0,"byteOffset":3072,"byteLength":576}],"accessors":[{"bufferView":0,"componentType":5126,"count":96,"type":"VEC3","min":[-0.084226,-0.049872,-0.090053],"max":[0.084734,0.081853,0.076086]},{"bufferView":1,"componentType":5126,"count":96,"type":"VEC3"},{"bufferView":2,"componentType":5126,"count":96,"type":"VEC2"},{"bufferView":3,"componentType":5125,"count":144,"type":"SCALAR"}]}