{"asset":{"version":"2.0","generator":"obj-to-plant-gltf.js (HumanityOS, Quaternius CC0 source)"},"scene":0,"scenes":[{"nodes":[0]}],"nodes":[{"mesh":0,"name":"tomato_harvested"}],"meshes":[{"name":"tomato_harvested","primitives":[{"attributes":{"POSITION":0,"NORMAL":1,"TEXCOORD_0":2},"indices":3,"material":0}]}],"materials":[{"name":"palette","pbrMetallicRoughness":{"baseColorTexture":{"index":0},"metallicFactor":0,"roughnessFactor":0.9}}],"textures":[{"sampler":0,"source":0}],"samplers":[{"magFilter":9728,"minFilter":9728,"wrapS":33071,"wrapT":33071}],"images":[{"uri":"tomato_harvested_palette.png"}],"buffers":[{"uri":"tomato_harvested.bin","byteLength":108136}],"bufferViews":[{"buffer":0,"byteOffset":0,"byteLength":34440},{"buffer":0,"byteOffset":34440,"byteLength":34440},{"buffer":0,"byteOffset":68880,"byteLength":22960},{"buffer":0,"byteOffset":91840,"byteLength":16296}],"accessors":[{"bufferView":0,"componentType":5126,"count":2870,"type":"VEC3","min":[-0.369766,-0.000141,-0.336472],"max":[0.423415,1.719962,0.47353]},{"bufferView":1,"componentType":5126,"count":2870,"type":"VEC3"},{"bufferView":2,"componentType":5126,"count":2870,"type":"VEC2"},{"bufferView":3,"componentType":5125,"count":4074,"type":"SCALAR"}]}