{"asset":{"version":"2.0","generator":"obj-to-plant-gltf.js (HumanityOS, Quaternius CC0 source)"},"scene":0,"scenes":[{"nodes":[0]}],"nodes":[{"mesh":0,"name":"lettuce_3"}],"meshes":[{"name":"lettuce_3","primitives":[{"attributes":{"POSITION":0,"NORMAL":1,"TEXCOORD_0":2},"indices":3,"material":0}]}],"materials":[{"name":"palette","pbrMetallicRoughness":{"baseColorTexture":{"index":0},"metallicFactor":0,"roughnessFactor":0.9}}],"textures":[{"sampler":0,"source":0}],"samplers":[{"magFilter":9728,"minFilter":9728,"wrapS":33071,"wrapT":33071}],"images":[{"uri":"lettuce_3_palette.png"}],"buffers":[{"uri":"lettuce_3.bin","byteLength":49072}],"bufferViews":[{"buffer":0,"byteOffset":0,"byteLength":15648},{"buffer":0,"byteOffset":15648,"byteLength":15648},{"buffer":0,"byteOffset":31296,"byteLength":10432},{"buffer":0,"byteOffset":41728,"byteLength":7344}],"accessors":[{"bufferView":0,"componentType":5126,"count":1304,"type":"VEC3","min":[-0.332608,-0.069324,-0.327199],"max":[0.290554,0.312274,0.349198]},{"bufferView":1,"componentType":5126,"count":1304,"type":"VEC3"},{"bufferView":2,"componentType":5126,"count":1304,"type":"VEC2"},{"bufferView":3,"componentType":5125,"count":1836,"type":"SCALAR"}]}