{"asset":{"version":"2.0","generator":"obj-to-plant-gltf.js (HumanityOS, Quaternius CC0 source)"},"scene":0,"scenes":[{"nodes":[0]}],"nodes":[{"mesh":0,"name":"bathroommirror"}],"meshes":[{"name":"bathroommirror","primitives":[{"attributes":{"POSITION":0,"NORMAL":1,"TEXCOORD_0":2},"indices":3,"material":0}]}],"materials":[{"name":"palette","pbrMetallicRoughness":{"baseColorTexture":{"index":0},"metallicFactor":0,"roughnessFactor":0.9}}],"textures":[{"sampler":0,"source":0}],"samplers":[{"magFilter":9728,"minFilter":9728,"wrapS":33071,"wrapT":33071}],"images":[{"uri":"bathroommirror_palette.png"}],"buffers":[{"uri":"bathroommirror.bin","byteLength":5248}],"bufferViews":[{"buffer":0,"byteOffset":0,"byteLength":1320},{"buffer":0,"byteOffset":1320,"byteLength":1320},{"buffer":0,"byteOffset":2640,"byteLength":880},{"buffer":0,"byteOffset":3520,"byteLength":1728}],"accessors":[{"bufferView":0,"componentType":5126,"count":110,"type":"VEC3","min":[-0.30134,4.443999e-15,-0.0956],"max":[0,0.434625,0.0488]},{"bufferView":1,"componentType":5126,"count":110,"type":"VEC3"},{"bufferView":2,"componentType":5126,"count":110,"type":"VEC2"},{"bufferView":3,"componentType":5125,"count":432,"type":"SCALAR"}]}