{"asset":{"version":"2.0","generator":"obj-to-plant-gltf.js (HumanityOS, Quaternius CC0 source)"},"scene":0,"scenes":[{"nodes":[0]}],"nodes":[{"mesh":0,"name":"apple_harvested"}],"meshes":[{"name":"apple_harvested","primitives":[{"attributes":{"POSITION":0,"NORMAL":1,"TEXCOORD_0":2},"indices":3,"material":0}]}],"materials":[{"name":"palette","pbrMetallicRoughness":{"baseColorTexture":{"index":0},"metallicFactor":0,"roughnessFactor":0.9}}],"textures":[{"sampler":0,"source":0}],"samplers":[{"magFilter":9728,"minFilter":9728,"wrapS":33071,"wrapT":33071}],"images":[{"uri":"apple_harvested_palette.png"}],"buffers":[{"uri":"apple_harvested.bin","byteLength":74784}],"bufferViews":[{"buffer":0,"byteOffset":0,"byteLength":23616},{"buffer":0,"byteOffset":23616,"byteLength":23616},{"buffer":0,"byteOffset":47232,"byteLength":15744},{"buffer":0,"byteOffset":62976,"byteLength":11808}],"accessors":[{"bufferView":0,"componentType":5126,"count":1968,"type":"VEC3","min":[-0.682348,-0.000006,-1.102151],"max":[1.11835,2.762721,0.476496]},{"bufferView":1,"componentType":5126,"count":1968,"type":"VEC3"},{"bufferView":2,"componentType":5126,"count":1968,"type":"VEC2"},{"bufferView":3,"componentType":5125,"count":2952,"type":"SCALAR"}]}