{"asset":{"version":"2.0","generator":"obj-to-plant-gltf.js (HumanityOS, Quaternius CC0 source)"},"scene":0,"scenes":[{"nodes":[0]}],"nodes":[{"mesh":0,"name":"flowers_crop"}],"meshes":[{"name":"flowers_crop","primitives":[{"attributes":{"POSITION":0,"NORMAL":1,"TEXCOORD_0":2},"indices":3,"material":0}]}],"materials":[{"name":"palette","pbrMetallicRoughness":{"baseColorTexture":{"index":0},"metallicFactor":0,"roughnessFactor":0.9}}],"textures":[{"sampler":0,"source":0}],"samplers":[{"magFilter":9728,"minFilter":9728,"wrapS":33071,"wrapT":33071}],"images":[{"uri":"flowers_crop_palette.png"}],"buffers":[{"uri":"flowers_crop.bin","byteLength":10568}],"bufferViews":[{"buffer":0,"byteOffset":0,"byteLength":3360},{"buffer":0,"byteOffset":3360,"byteLength":3360},{"buffer":0,"byteOffset":6720,"byteLength":2240},{"buffer":0,"byteOffset":8960,"byteLength":1608}],"accessors":[{"bufferView":0,"componentType":5126,"count":280,"type":"VEC3","min":[-0.147323,-0.014604,-0.145951],"max":[0.144453,0.101613,0.146696]},{"bufferView":1,"componentType":5126,"count":280,"type":"VEC3"},{"bufferView":2,"componentType":5126,"count":280,"type":"VEC2"},{"bufferView":3,"componentType":5125,"count":402,"type":"SCALAR"}]}