{"asset":{"version":"2.0","generator":"obj-to-plant-gltf.js (HumanityOS, Quaternius CC0 source)"},"scene":0,"scenes":[{"nodes":[0]}],"nodes":[{"mesh":0,"name":"wheat_3"}],"meshes":[{"name":"wheat_3","primitives":[{"attributes":{"POSITION":0,"NORMAL":1,"TEXCOORD_0":2},"indices":3,"material":0}]}],"materials":[{"name":"palette","pbrMetallicRoughness":{"baseColorTexture":{"index":0},"metallicFactor":0,"roughnessFactor":0.9}}],"textures":[{"sampler":0,"source":0}],"samplers":[{"magFilter":9728,"minFilter":9728,"wrapS":33071,"wrapT":33071}],"images":[{"uri":"wheat_3_palette.png"}],"buffers":[{"uri":"wheat_3.bin","byteLength":18824}],"bufferViews":[{"buffer":0,"byteOffset":0,"byteLength":5952},{"buffer":0,"byteOffset":5952,"byteLength":5952},{"buffer":0,"byteOffset":11904,"byteLength":3968},{"buffer":0,"byteOffset":15872,"byteLength":2952}],"accessors":[{"bufferView":0,"componentType":5126,"count":496,"type":"VEC3","min":[-0.126641,0,-0.114597],"max":[0.038124,0.694277,0.128519]},{"bufferView":1,"componentType":5126,"count":496,"type":"VEC3"},{"bufferView":2,"componentType":5126,"count":496,"type":"VEC2"},{"bufferView":3,"componentType":5125,"count":738,"type":"SCALAR"}]}