{"asset":{"version":"2.0","generator":"obj-to-plant-gltf.js (HumanityOS, Quaternius CC0 source)"},"scene":0,"scenes":[{"nodes":[0]}],"nodes":[{"mesh":0,"name":"bookcaseopen"}],"meshes":[{"name":"bookcaseopen","primitives":[{"attributes":{"POSITION":0,"NORMAL":1,"TEXCOORD_0":2},"indices":3,"material":0}]}],"materials":[{"name":"palette","pbrMetallicRoughness":{"baseColorTexture":{"index":0},"metallicFactor":0,"roughnessFactor":0.9}}],"textures":[{"sampler":0,"source":0}],"samplers":[{"magFilter":9728,"minFilter":9728,"wrapS":33071,"wrapT":33071}],"images":[{"uri":"bookcaseopen_palette.png"}],"buffers":[{"uri":"bookcaseopen.bin","byteLength":20480}],"bufferViews":[{"buffer":0,"byteOffset":0,"byteLength":4800},{"buffer":0,"byteOffset":4800,"byteLength":4800},{"buffer":0,"byteOffset":9600,"byteLength":3200},{"buffer":0,"byteOffset":12800,"byteLength":7680}],"accessors":[{"bufferView":0,"componentType":5126,"count":400,"type":"VEC3","min":[-0.4,0,0],"max":[0,0.8799999,0.25]},{"bufferView":1,"componentType":5126,"count":400,"type":"VEC3"},{"bufferView":2,"componentType":5126,"count":400,"type":"VEC2"},{"bufferView":3,"componentType":5125,"count":1920,"type":"SCALAR"}]}