{"asset":{"version":"2.0","generator":"obj-to-plant-gltf.js (HumanityOS, Quaternius CC0 source)"},"scene":0,"scenes":[{"nodes":[0]}],"nodes":[{"mesh":0,"name":"pumpkin_1"}],"meshes":[{"name":"pumpkin_1","primitives":[{"attributes":{"POSITION":0,"NORMAL":1,"TEXCOORD_0":2},"indices":3,"material":0}]}],"materials":[{"name":"palette","pbrMetallicRoughness":{"baseColorTexture":{"index":0},"metallicFactor":0,"roughnessFactor":0.9}}],"textures":[{"sampler":0,"source":0}],"samplers":[{"magFilter":9728,"minFilter":9728,"wrapS":33071,"wrapT":33071}],"images":[{"uri":"pumpkin_1_palette.png"}],"buffers":[{"uri":"pumpkin_1.bin","byteLength":9904}],"bufferViews":[{"buffer":0,"byteOffset":0,"byteLength":3120},{"buffer":0,"byteOffset":3120,"byteLength":3120},{"buffer":0,"byteOffset":6240,"byteLength":2080},{"buffer":0,"byteOffset":8320,"byteLength":1584}],"accessors":[{"bufferView":0,"componentType":5126,"count":260,"type":"VEC3","min":[-0.077441,0.000133,-0.0262],"max":[0.139587,0.391595,0.066641]},{"bufferView":1,"componentType":5126,"count":260,"type":"VEC3"},{"bufferView":2,"componentType":5126,"count":260,"type":"VEC2"},{"bufferView":3,"componentType":5125,"count":396,"type":"SCALAR"}]}