{"asset":{"version":"2.0","generator":"obj-to-plant-gltf.js (HumanityOS, Quaternius CC0 source)"},"scene":0,"scenes":[{"nodes":[0]}],"nodes":[{"mesh":0,"name":"coconut_half"}],"meshes":[{"name":"coconut_half","primitives":[{"attributes":{"POSITION":0,"NORMAL":1,"TEXCOORD_0":2},"indices":3,"material":0}]}],"materials":[{"name":"palette","pbrMetallicRoughness":{"baseColorTexture":{"index":0},"metallicFactor":0,"roughnessFactor":0.9}}],"textures":[{"sampler":0,"source":0}],"samplers":[{"magFilter":9728,"minFilter":9728,"wrapS":33071,"wrapT":33071}],"images":[{"uri":"coconut_half_palette.png"}],"buffers":[{"uri":"coconut_half.bin","byteLength":12720}],"bufferViews":[{"buffer":0,"byteOffset":0,"byteLength":4176},{"buffer":0,"byteOffset":4176,"byteLength":4176},{"buffer":0,"byteOffset":8352,"byteLength":2784},{"buffer":0,"byteOffset":11136,"byteLength":1584}],"accessors":[{"bufferView":0,"componentType":5126,"count":348,"type":"VEC3","min":[-0.391785,-0.375718,-0.382553],"max":[0.391785,0.401205,0.029434]},{"bufferView":1,"componentType":5126,"count":348,"type":"VEC3"},{"bufferView":2,"componentType":5126,"count":348,"type":"VEC2"},{"bufferView":3,"componentType":5125,"count":396,"type":"SCALAR"}]}