{"asset":{"version":"2.0","generator":"obj-to-plant-gltf.js (HumanityOS, Quaternius CC0 source)"},"scene":0,"scenes":[{"nodes":[0]}],"nodes":[{"mesh":0,"name":"bushberries_4"}],"meshes":[{"name":"bushberries_4","primitives":[{"attributes":{"POSITION":0,"NORMAL":1,"TEXCOORD_0":2},"indices":3,"material":0}]}],"materials":[{"name":"palette","pbrMetallicRoughness":{"baseColorTexture":{"index":0},"metallicFactor":0,"roughnessFactor":0.9}}],"textures":[{"sampler":0,"source":0}],"samplers":[{"magFilter":9728,"minFilter":9728,"wrapS":33071,"wrapT":33071}],"images":[{"uri":"bushberries_4_palette.png"}],"buffers":[{"uri":"bushberries_4.bin","byteLength":67792}],"bufferViews":[{"buffer":0,"byteOffset":0,"byteLength":21408},{"buffer":0,"byteOffset":21408,"byteLength":21408},{"buffer":0,"byteOffset":42816,"byteLength":14272},{"buffer":0,"byteOffset":57088,"byteLength":10704}],"accessors":[{"bufferView":0,"componentType":5126,"count":1784,"type":"VEC3","min":[-0.861082,-0.032125,-0.723433],"max":[0.857807,1.243872,0.668952]},{"bufferView":1,"componentType":5126,"count":1784,"type":"VEC3"},{"bufferView":2,"componentType":5126,"count":1784,"type":"VEC2"},{"bufferView":3,"componentType":5125,"count":2676,"type":"SCALAR"}]}