{"asset":{"version":"2.0","generator":"obj-to-plant-gltf.js (HumanityOS, Quaternius CC0 source)"},"scene":0,"scenes":[{"nodes":[0]}],"nodes":[{"mesh":0,"name":"rice_crop"}],"meshes":[{"name":"rice_crop","primitives":[{"attributes":{"POSITION":0,"NORMAL":1,"TEXCOORD_0":2},"indices":3,"material":0}]}],"materials":[{"name":"palette","pbrMetallicRoughness":{"baseColorTexture":{"index":0},"metallicFactor":0,"roughnessFactor":0.9}}],"textures":[{"sampler":0,"source":0}],"samplers":[{"magFilter":9728,"minFilter":9728,"wrapS":33071,"wrapT":33071}],"images":[{"uri":"rice_crop_palette.png"}],"buffers":[{"uri":"rice_crop.bin","byteLength":28504}],"bufferViews":[{"buffer":0,"byteOffset":0,"byteLength":9024},{"buffer":0,"byteOffset":9024,"byteLength":9024},{"buffer":0,"byteOffset":18048,"byteLength":6016},{"buffer":0,"byteOffset":24064,"byteLength":4440}],"accessors":[{"bufferView":0,"componentType":5126,"count":752,"type":"VEC3","min":[-0.586149,-0.051548,-0.267165],"max":[0.320125,-0.005886,0.119666]},{"bufferView":1,"componentType":5126,"count":752,"type":"VEC3"},{"bufferView":2,"componentType":5126,"count":752,"type":"VEC2"},{"bufferView":3,"componentType":5125,"count":1110,"type":"SCALAR"}]}