{"asset":{"version":"2.0","generator":"obj-to-plant-gltf.js (HumanityOS, Quaternius CC0 source)"},"scene":0,"scenes":[{"nodes":[0]}],"nodes":[{"mesh":0,"name":"watermelon_4"}],"meshes":[{"name":"watermelon_4","primitives":[{"attributes":{"POSITION":0,"NORMAL":1,"TEXCOORD_0":2},"indices":3,"material":0}]}],"materials":[{"name":"palette","pbrMetallicRoughness":{"baseColorTexture":{"index":0},"metallicFactor":0,"roughnessFactor":0.9}}],"textures":[{"sampler":0,"source":0}],"samplers":[{"magFilter":9728,"minFilter":9728,"wrapS":33071,"wrapT":33071}],"images":[{"uri":"watermelon_4_palette.png"}],"buffers":[{"uri":"watermelon_4.bin","byteLength":198240}],"bufferViews":[{"buffer":0,"byteOffset":0,"byteLength":62640},{"buffer":0,"byteOffset":62640,"byteLength":62640},{"buffer":0,"byteOffset":125280,"byteLength":41760},{"buffer":0,"byteOffset":167040,"byteLength":31200}],"accessors":[{"bufferView":0,"componentType":5126,"count":5220,"type":"VEC3","min":[-0.498018,-0.2046,-0.653336],"max":[0.791704,0.385378,0.421983]},{"bufferView":1,"componentType":5126,"count":5220,"type":"VEC3"},{"bufferView":2,"componentType":5126,"count":5220,"type":"VEC2"},{"bufferView":3,"componentType":5125,"count":7800,"type":"SCALAR"}]}