{"asset":{"version":"2.0","generator":"obj-to-plant-gltf.js (HumanityOS, Quaternius CC0 source)"},"scene":0,"scenes":[{"nodes":[0]}],"nodes":[{"mesh":0,"name":"tomato_crop"}],"meshes":[{"name":"tomato_crop","primitives":[{"attributes":{"POSITION":0,"NORMAL":1,"TEXCOORD_0":2},"indices":3,"material":0}]}],"materials":[{"name":"palette","pbrMetallicRoughness":{"baseColorTexture":{"index":0},"metallicFactor":0,"roughnessFactor":0.9}}],"textures":[{"sampler":0,"source":0}],"samplers":[{"magFilter":9728,"minFilter":9728,"wrapS":33071,"wrapT":33071}],"images":[{"uri":"tomato_crop_palette.png"}],"buffers":[{"uri":"tomato_crop.bin","byteLength":26080}],"bufferViews":[{"buffer":0,"byteOffset":0,"byteLength":8232},{"buffer":0,"byteOffset":8232,"byteLength":8232},{"buffer":0,"byteOffset":16464,"byteLength":5488},{"buffer":0,"byteOffset":21952,"byteLength":4128}],"accessors":[{"bufferView":0,"componentType":5126,"count":686,"type":"VEC3","min":[-0.088985,-0.053037,-0.088985],"max":[0.088983,0.095108,0.088984]},{"bufferView":1,"componentType":5126,"count":686,"type":"VEC3"},{"bufferView":2,"componentType":5126,"count":686,"type":"VEC2"},{"bufferView":3,"componentType":5125,"count":1032,"type":"SCALAR"}]}