{"asset":{"version":"2.0","generator":"obj-to-plant-gltf.js (HumanityOS, Quaternius CC0 source)"},"scene":0,"scenes":[{"nodes":[0]}],"nodes":[{"mesh":0,"name":"lettuce_1"}],"meshes":[{"name":"lettuce_1","primitives":[{"attributes":{"POSITION":0,"NORMAL":1,"TEXCOORD_0":2},"indices":3,"material":0}]}],"materials":[{"name":"palette","pbrMetallicRoughness":{"baseColorTexture":{"index":0},"metallicFactor":0,"roughnessFactor":0.9}}],"textures":[{"sampler":0,"source":0}],"samplers":[{"magFilter":9728,"minFilter":9728,"wrapS":33071,"wrapT":33071}],"images":[{"uri":"lettuce_1_palette.png"}],"buffers":[{"uri":"lettuce_1.bin","byteLength":6816}],"bufferViews":[{"buffer":0,"byteOffset":0,"byteLength":2160},{"buffer":0,"byteOffset":2160,"byteLength":2160},{"buffer":0,"byteOffset":4320,"byteLength":1440},{"buffer":0,"byteOffset":5760,"byteLength":1056}],"accessors":[{"bufferView":0,"componentType":5126,"count":180,"type":"VEC3","min":[-0.147003,0.001654,-0.04146],"max":[0.129144,0.295724,0.069502]},{"bufferView":1,"componentType":5126,"count":180,"type":"VEC3"},{"bufferView":2,"componentType":5126,"count":180,"type":"VEC2"},{"bufferView":3,"componentType":5125,"count":264,"type":"SCALAR"}]}