{"asset":{"version":"2.0","generator":"obj-to-plant-gltf.js (HumanityOS, Quaternius CC0 source)"},"scene":0,"scenes":[{"nodes":[0]}],"nodes":[{"mesh":0,"name":"cactus_1"}],"meshes":[{"name":"cactus_1","primitives":[{"attributes":{"POSITION":0,"NORMAL":1,"TEXCOORD_0":2},"indices":3,"material":0}]}],"materials":[{"name":"palette","pbrMetallicRoughness":{"baseColorTexture":{"index":0},"metallicFactor":0,"roughnessFactor":0.9}}],"textures":[{"sampler":0,"source":0}],"samplers":[{"magFilter":9728,"minFilter":9728,"wrapS":33071,"wrapT":33071}],"images":[{"uri":"cactus_1_palette.png"}],"buffers":[{"uri":"cactus_1.bin","byteLength":8512}],"bufferViews":[{"buffer":0,"byteOffset":0,"byteLength":2688},{"buffer":0,"byteOffset":2688,"byteLength":2688},{"buffer":0,"byteOffset":5376,"byteLength":1792},{"buffer":0,"byteOffset":7168,"byteLength":1344}],"accessors":[{"bufferView":0,"componentType":5126,"count":224,"type":"VEC3","min":[-0.046355,-0.003216,-0.046355],"max":[0.046355,0.163824,0.046355]},{"bufferView":1,"componentType":5126,"count":224,"type":"VEC3"},{"bufferView":2,"componentType":5126,"count":224,"type":"VEC2"},{"bufferView":3,"componentType":5125,"count":336,"type":"SCALAR"}]}