{"asset":{"version":"2.0","generator":"obj-to-plant-gltf.js (HumanityOS, Quaternius CC0 source)"},"scene":0,"scenes":[{"nodes":[0]}],"nodes":[{"mesh":0,"name":"palmtree_crop"}],"meshes":[{"name":"palmtree_crop","primitives":[{"attributes":{"POSITION":0,"NORMAL":1,"TEXCOORD_0":2},"indices":3,"material":0}]}],"materials":[{"name":"palette","pbrMetallicRoughness":{"baseColorTexture":{"index":0},"metallicFactor":0,"roughnessFactor":0.9}}],"textures":[{"sampler":0,"source":0}],"samplers":[{"magFilter":9728,"minFilter":9728,"wrapS":33071,"wrapT":33071}],"images":[{"uri":"palmtree_crop_palette.png"}],"buffers":[{"uri":"palmtree_crop.bin","byteLength":8792}],"bufferViews":[{"buffer":0,"byteOffset":0,"byteLength":2928},{"buffer":0,"byteOffset":2928,"byteLength":2928},{"buffer":0,"byteOffset":5856,"byteLength":1952},{"buffer":0,"byteOffset":7808,"byteLength":984}],"accessors":[{"bufferView":0,"componentType":5126,"count":244,"type":"VEC3","min":[-0.112174,-0.10839,-0.113066],"max":[0.112174,0.115742,0.112946]},{"bufferView":1,"componentType":5126,"count":244,"type":"VEC3"},{"bufferView":2,"componentType":5126,"count":244,"type":"VEC2"},{"bufferView":3,"componentType":5125,"count":246,"type":"SCALAR"}]}