{"asset":{"version":"2.0","generator":"obj-to-plant-gltf.js (HumanityOS, Quaternius CC0 source)"},"scene":0,"scenes":[{"nodes":[0]}],"nodes":[{"mesh":0,"name":"pumpkin_crop"}],"meshes":[{"name":"pumpkin_crop","primitives":[{"attributes":{"POSITION":0,"NORMAL":1,"TEXCOORD_0":2},"indices":3,"material":0}]}],"materials":[{"name":"palette","pbrMetallicRoughness":{"baseColorTexture":{"index":0},"metallicFactor":0,"roughnessFactor":0.9}}],"textures":[{"sampler":0,"source":0}],"samplers":[{"magFilter":9728,"minFilter":9728,"wrapS":33071,"wrapT":33071}],"images":[{"uri":"pumpkin_crop_palette.png"}],"buffers":[{"uri":"pumpkin_crop.bin","byteLength":29648}],"bufferViews":[{"buffer":0,"byteOffset":0,"byteLength":9336},{"buffer":0,"byteOffset":9336,"byteLength":9336},{"buffer":0,"byteOffset":18672,"byteLength":6224},{"buffer":0,"byteOffset":24896,"byteLength":4752}],"accessors":[{"bufferView":0,"componentType":5126,"count":778,"type":"VEC3","min":[-0.295613,0.00323,-0.289031],"max":[0.291899,0.557647,0.289031]},{"bufferView":1,"componentType":5126,"count":778,"type":"VEC3"},{"bufferView":2,"componentType":5126,"count":778,"type":"VEC2"},{"bufferView":3,"componentType":5125,"count":1188,"type":"SCALAR"}]}