{"asset":{"version":"2.0","generator":"obj-to-plant-gltf.js (HumanityOS, Quaternius CC0 source)"},"scene":0,"scenes":[{"nodes":[0]}],"nodes":[{"mesh":0,"name":"cactus_crop"}],"meshes":[{"name":"cactus_crop","primitives":[{"attributes":{"POSITION":0,"NORMAL":1,"TEXCOORD_0":2},"indices":3,"material":0}]}],"materials":[{"name":"palette","pbrMetallicRoughness":{"baseColorTexture":{"index":0},"metallicFactor":0,"roughnessFactor":0.9}}],"textures":[{"sampler":0,"source":0}],"samplers":[{"magFilter":9728,"minFilter":9728,"wrapS":33071,"wrapT":33071}],"images":[{"uri":"cactus_crop_palette.png"}],"buffers":[{"uri":"cactus_crop.bin","byteLength":19968}],"bufferViews":[{"buffer":0,"byteOffset":0,"byteLength":6336},{"buffer":0,"byteOffset":6336,"byteLength":6336},{"buffer":0,"byteOffset":12672,"byteLength":4224},{"buffer":0,"byteOffset":16896,"byteLength":3072}],"accessors":[{"bufferView":0,"componentType":5126,"count":528,"type":"VEC3","min":[-0.167424,-0.001842,-0.183012],"max":[0.194501,0.234393,0.183012]},{"bufferView":1,"componentType":5126,"count":528,"type":"VEC3"},{"bufferView":2,"componentType":5126,"count":528,"type":"VEC2"},{"bufferView":3,"componentType":5125,"count":768,"type":"SCALAR"}]}