{"asset":{"version":"2.0","generator":"obj-to-plant-gltf.js (HumanityOS, Quaternius CC0 source)"},"scene":0,"scenes":[{"nodes":[0]}],"nodes":[{"mesh":0,"name":"watermelon_2"}],"meshes":[{"name":"watermelon_2","primitives":[{"attributes":{"POSITION":0,"NORMAL":1,"TEXCOORD_0":2},"indices":3,"material":0}]}],"materials":[{"name":"palette","pbrMetallicRoughness":{"baseColorTexture":{"index":0},"metallicFactor":0,"roughnessFactor":0.9}}],"textures":[{"sampler":0,"source":0}],"samplers":[{"magFilter":9728,"minFilter":9728,"wrapS":33071,"wrapT":33071}],"images":[{"uri":"watermelon_2_palette.png"}],"buffers":[{"uri":"watermelon_2.bin","byteLength":65704}],"bufferViews":[{"buffer":0,"byteOffset":0,"byteLength":20760},{"buffer":0,"byteOffset":20760,"byteLength":20760},{"buffer":0,"byteOffset":41520,"byteLength":13840},{"buffer":0,"byteOffset":55360,"byteLength":10344}],"accessors":[{"bufferView":0,"componentType":5126,"count":1730,"type":"VEC3","min":[-0.408001,0.008936,-0.258206],"max":[0.060405,0.263322,0.181976]},{"bufferView":1,"componentType":5126,"count":1730,"type":"VEC3"},{"bufferView":2,"componentType":5126,"count":1730,"type":"VEC2"},{"bufferView":3,"componentType":5125,"count":2586,"type":"SCALAR"}]}