{"asset":{"version":"2.0","generator":"obj-to-plant-gltf.js (HumanityOS, Quaternius CC0 source)"},"scene":0,"scenes":[{"nodes":[0]}],"nodes":[{"mesh":0,"name":"corn_harvested"}],"meshes":[{"name":"corn_harvested","primitives":[{"attributes":{"POSITION":0,"NORMAL":1,"TEXCOORD_0":2},"indices":3,"material":0}]}],"materials":[{"name":"palette","pbrMetallicRoughness":{"baseColorTexture":{"index":0},"metallicFactor":0,"roughnessFactor":0.9}}],"textures":[{"sampler":0,"source":0}],"samplers":[{"magFilter":9728,"minFilter":9728,"wrapS":33071,"wrapT":33071}],"images":[{"uri":"corn_harvested_palette.png"}],"buffers":[{"uri":"corn_harvested.bin","byteLength":49128}],"bufferViews":[{"buffer":0,"byteOffset":0,"byteLength":15552},{"buffer":0,"byteOffset":15552,"byteLength":15552},{"buffer":0,"byteOffset":31104,"byteLength":10368},{"buffer":0,"byteOffset":41472,"byteLength":7656}],"accessors":[{"bufferView":0,"componentType":5126,"count":1296,"type":"VEC3","min":[-0.436688,0.003481,-0.365146],"max":[0.450592,1.970578,0.283851]},{"bufferView":1,"componentType":5126,"count":1296,"type":"VEC3"},{"bufferView":2,"componentType":5126,"count":1296,"type":"VEC2"},{"bufferView":3,"componentType":5125,"count":1914,"type":"SCALAR"}]}