{"asset":{"version":"2.0","generator":"obj-to-plant-gltf.js (HumanityOS, Quaternius CC0 source)"},"scene":0,"scenes":[{"nodes":[0]}],"nodes":[{"mesh":0,"name":"beet_2"}],"meshes":[{"name":"beet_2","primitives":[{"attributes":{"POSITION":0,"NORMAL":1,"TEXCOORD_0":2},"indices":3,"material":0}]}],"materials":[{"name":"palette","pbrMetallicRoughness":{"baseColorTexture":{"index":0},"metallicFactor":0,"roughnessFactor":0.9}}],"textures":[{"sampler":0,"source":0}],"samplers":[{"magFilter":9728,"minFilter":9728,"wrapS":33071,"wrapT":33071}],"images":[{"uri":"beet_2_palette.png"}],"buffers":[{"uri":"beet_2.bin","byteLength":15884}],"bufferViews":[{"buffer":0,"byteOffset":0,"byteLength":4980},{"buffer":0,"byteOffset":4980,"byteLength":4980},{"buffer":0,"byteOffset":9960,"byteLength":3320},{"buffer":0,"byteOffset":13280,"byteLength":2604}],"accessors":[{"bufferView":0,"componentType":5126,"count":415,"type":"VEC3","min":[-0.064335,-0.237243,-0.069463],"max":[0.148736,0.622489,0.069463]},{"bufferView":1,"componentType":5126,"count":415,"type":"VEC3"},{"bufferView":2,"componentType":5126,"count":415,"type":"VEC2"},{"bufferView":3,"componentType":5125,"count":651,"type":"SCALAR"}]}