{"asset":{"version":"2.0","generator":"obj-to-plant-gltf.js (HumanityOS, Quaternius CC0 source)"},"scene":0,"scenes":[{"nodes":[0]}],"nodes":[{"mesh":0,"name":"cabinetbeddrawertable"}],"meshes":[{"name":"cabinetbeddrawertable","primitives":[{"attributes":{"POSITION":0,"NORMAL":1,"TEXCOORD_0":2},"indices":3,"material":0}]}],"materials":[{"name":"palette","pbrMetallicRoughness":{"baseColorTexture":{"index":0},"metallicFactor":0,"roughnessFactor":0.9}}],"textures":[{"sampler":0,"source":0}],"samplers":[{"magFilter":9728,"minFilter":9728,"wrapS":33071,"wrapT":33071}],"images":[{"uri":"cabinetbeddrawertable_palette.png"}],"buffers":[{"uri":"cabinetbeddrawertable.bin","byteLength":9872}],"bufferViews":[{"buffer":0,"byteOffset":0,"byteLength":2640},{"buffer":0,"byteOffset":2640,"byteLength":2640},{"buffer":0,"byteOffset":5280,"byteLength":1760},{"buffer":0,"byteOffset":7040,"byteLength":2832}],"accessors":[{"bufferView":0,"componentType":5126,"count":220,"type":"VEC3","min":[-0.256,0,-0.0123],"max":[0.01,0.2632,0.205]},{"bufferView":1,"componentType":5126,"count":220,"type":"VEC3"},{"bufferView":2,"componentType":5126,"count":220,"type":"VEC2"},{"bufferView":3,"componentType":5125,"count":708,"type":"SCALAR"}]}