{"asset":{"version":"2.0","generator":"obj-to-plant-gltf.js (HumanityOS, Quaternius CC0 source)"},"scene":0,"scenes":[{"nodes":[0]}],"nodes":[{"mesh":0,"name":"mushroom_harvested"}],"meshes":[{"name":"mushroom_harvested","primitives":[{"attributes":{"POSITION":0,"NORMAL":1,"TEXCOORD_0":2},"indices":3,"material":0}]}],"materials":[{"name":"palette","pbrMetallicRoughness":{"baseColorTexture":{"index":0},"metallicFactor":0,"roughnessFactor":0.9}}],"textures":[{"sampler":0,"source":0}],"samplers":[{"magFilter":9728,"minFilter":9728,"wrapS":33071,"wrapT":33071}],"images":[{"uri":"mushroom_harvested_palette.png"}],"buffers":[{"uri":"mushroom_harvested.bin","byteLength":36808}],"bufferViews":[{"buffer":0,"byteOffset":0,"byteLength":11436},{"buffer":0,"byteOffset":11436,"byteLength":11436},{"buffer":0,"byteOffset":22872,"byteLength":7624},{"buffer":0,"byteOffset":30496,"byteLength":6312}],"accessors":[{"bufferView":0,"componentType":5126,"count":953,"type":"VEC3","min":[-0.095512,0,-0.095512],"max":[0.095512,0.294736,0.095512]},{"bufferView":1,"componentType":5126,"count":953,"type":"VEC3"},{"bufferView":2,"componentType":5126,"count":953,"type":"VEC2"},{"bufferView":3,"componentType":5125,"count":1578,"type":"SCALAR"}]}