{"asset":{"version":"2.0","generator":"obj-to-plant-gltf.js (HumanityOS, Quaternius CC0 source)"},"scene":0,"scenes":[{"nodes":[0]}],"nodes":[{"mesh":0,"name":"rugrectangle"}],"meshes":[{"name":"rugrectangle","primitives":[{"attributes":{"POSITION":0,"NORMAL":1,"TEXCOORD_0":2},"indices":3,"material":0}]}],"materials":[{"name":"palette","pbrMetallicRoughness":{"baseColorTexture":{"index":0},"metallicFactor":0,"roughnessFactor":0.9}}],"textures":[{"sampler":0,"source":0}],"samplers":[{"magFilter":9728,"minFilter":9728,"wrapS":33071,"wrapT":33071}],"images":[{"uri":"rugrectangle_palette.png"}],"buffers":[{"uri":"rugrectangle.bin","byteLength":1952}],"bufferViews":[{"buffer":0,"byteOffset":0,"byteLength":480},{"buffer":0,"byteOffset":480,"byteLength":480},{"buffer":0,"byteOffset":960,"byteLength":320},{"buffer":0,"byteOffset":1280,"byteLength":672}],"accessors":[{"bufferView":0,"componentType":5126,"count":40,"type":"VEC3","min":[-1.57,0,0],"max":[0,0.01,0.92]},{"bufferView":1,"componentType":5126,"count":40,"type":"VEC3"},{"bufferView":2,"componentType":5126,"count":40,"type":"VEC2"},{"bufferView":3,"componentType":5125,"count":168,"type":"SCALAR"}]}