{"asset":{"version":"2.0","generator":"obj-to-plant-gltf.js (HumanityOS, Quaternius CC0 source)"},"scene":0,"scenes":[{"nodes":[0]}],"nodes":[{"mesh":0,"name":"pumpkin_4"}],"meshes":[{"name":"pumpkin_4","primitives":[{"attributes":{"POSITION":0,"NORMAL":1,"TEXCOORD_0":2},"indices":3,"material":0}]}],"materials":[{"name":"palette","pbrMetallicRoughness":{"baseColorTexture":{"index":0},"metallicFactor":0,"roughnessFactor":0.9}}],"textures":[{"sampler":0,"source":0}],"samplers":[{"magFilter":9728,"minFilter":9728,"wrapS":33071,"wrapT":33071}],"images":[{"uri":"pumpkin_4_palette.png"}],"buffers":[{"uri":"pumpkin_4.bin","byteLength":219584}],"bufferViews":[{"buffer":0,"byteOffset":0,"byteLength":69312},{"buffer":0,"byteOffset":69312,"byteLength":69312},{"buffer":0,"byteOffset":138624,"byteLength":46208},{"buffer":0,"byteOffset":184832,"byteLength":34752}],"accessors":[{"bufferView":0,"componentType":5126,"count":5776,"type":"VEC3","min":[-0.509371,-0.041789,-0.664529],"max":[0.780351,0.54819,0.410789]},{"bufferView":1,"componentType":5126,"count":5776,"type":"VEC3"},{"bufferView":2,"componentType":5126,"count":5776,"type":"VEC2"},{"bufferView":3,"componentType":5125,"count":8688,"type":"SCALAR"}]}