{"asset":{"version":"2.0","generator":"obj-to-plant-gltf.js (HumanityOS, Quaternius CC0 source)"},"scene":0,"scenes":[{"nodes":[0]}],"nodes":[{"mesh":0,"name":"palmtree_1"}],"meshes":[{"name":"palmtree_1","primitives":[{"attributes":{"POSITION":0,"NORMAL":1,"TEXCOORD_0":2},"indices":3,"material":0}]}],"materials":[{"name":"palette","pbrMetallicRoughness":{"baseColorTexture":{"index":0},"metallicFactor":0,"roughnessFactor":0.9}}],"textures":[{"sampler":0,"source":0}],"samplers":[{"magFilter":9728,"minFilter":9728,"wrapS":33071,"wrapT":33071}],"images":[{"uri":"palmtree_1_palette.png"}],"buffers":[{"uri":"palmtree_1.bin","byteLength":13632}],"bufferViews":[{"buffer":0,"byteOffset":0,"byteLength":4320},{"buffer":0,"byteOffset":4320,"byteLength":4320},{"buffer":0,"byteOffset":8640,"byteLength":2880},{"buffer":0,"byteOffset":11520,"byteLength":2112}],"accessors":[{"bufferView":0,"componentType":5126,"count":360,"type":"VEC3","min":[-0.189016,0.002127,-0.189016],"max":[0.166053,0.35234,0.229353]},{"bufferView":1,"componentType":5126,"count":360,"type":"VEC3"},{"bufferView":2,"componentType":5126,"count":360,"type":"VEC2"},{"bufferView":3,"componentType":5125,"count":528,"type":"SCALAR"}]}