{"asset":{"generator":"HumanityOS scripts/repack-plant-gltf.js --split (one variant, base re-centered, transforms baked)","version":"2.0"},"scene":0,"scenes":[{"name":"Scene","nodes":[0]}],"nodes":[{"mesh":0,"name":"pine_sapling_small_v2"}],"meshes":[{"name":"pine_sapling_small_v2","primitives":[{"attributes":{"POSITION":0,"NORMAL":1,"TEXCOORD_0":2},"indices":3,"mode":4,"material":0}]}],"accessors":[{"bufferView":0,"componentType":5126,"count":124796,"type":"VEC3","min":[-0.26387280225753784,0.0009154988802038133,-0.3332139551639557],"max":[0.2648884654045105,1.0465238094329834,0.3971325755119324]},{"bufferView":1,"componentType":5126,"count":124796,"type":"VEC3"},{"bufferView":2,"componentType":5126,"count":124796,"type":"VEC2"},{"bufferView":3,"componentType":5125,"count":366705,"type":"SCALAR"}],"bufferViews":[{"buffer":0,"byteOffset":0,"byteLength":1497552,"target":34962},{"buffer":0,"byteOffset":1497552,"byteLength":1497552,"target":34962},{"buffer":0,"byteOffset":2995104,"byteLength":998368,"target":34962},{"buffer":0,"byteOffset":3993472,"byteLength":1466820,"target":34963}],"buffers":[{"byteLength":5460292,"uri":"pine_sapling_small_v2.bin"}],"materials":[{"name":"pine_sapling_small_twig","pbrMetallicRoughness":{"baseColorTexture":{"index":0},"metallicFactor":0},"alphaMode":"MASK","alphaCutoff":0.5,"doubleSided":true}],"textures":[{"sampler":0,"source":0}],"images":[{"mimeType":"image/png","uri":"textures/pine_sapling_small_twig_diff_a_1k.png"}],"samplers":[{"magFilter":9729,"minFilter":9987}]}