{
  "asset": {
    "generator": "HumanityOS scripts/repack-plant-gltf.js (all primitives merged, transforms baked)",
    "version": "2.0"
  },
  "scene": 0,
  "scenes": [
    {
      "name": "Scene",
      "nodes": [
        0
      ]
    }
  ],
  "nodes": [
    {
      "mesh": 0,
      "name": "pine_sapling_small_merged"
    }
  ],
  "meshes": [
    {
      "name": "pine_sapling_small_merged",
      "primitives": [
        {
          "attributes": {
            "POSITION": 0,
            "NORMAL": 1,
            "TEXCOORD_0": 2
          },
          "indices": 3,
          "mode": 4
        }
      ]
    }
  ],
  "accessors": [
    {
      "bufferView": 0,
      "componentType": 5126,
      "count": 406356,
      "type": "VEC3",
      "min": [
        -0.36030644178390503,
        -0.015484155155718327,
        -0.3713758885860443
      ],
      "max": [
        2.2817535400390625,
        1.283473253250122,
        0.39897364377975464
      ]
    },
    {
      "bufferView": 1,
      "componentType": 5126,
      "count": 406356,
      "type": "VEC3"
    },
    {
      "bufferView": 2,
      "componentType": 5126,
      "count": 406356,
      "type": "VEC2"
    },
    {
      "bufferView": 3,
      "componentType": 5125,
      "count": 1194432,
      "type": "SCALAR"
    }
  ],
  "bufferViews": [
    {
      "buffer": 0,
      "byteOffset": 0,
      "byteLength": 4876272,
      "target": 34962
    },
    {
      "buffer": 0,
      "byteOffset": 4876272,
      "byteLength": 4876272,
      "target": 34962
    },
    {
      "buffer": 0,
      "byteOffset": 9752544,
      "byteLength": 3250848,
      "target": 34962
    },
    {
      "buffer": 0,
      "byteOffset": 13003392,
      "byteLength": 4777728,
      "target": 34963
    }
  ],
  "buffers": [
    {
      "byteLength": 17781120,
      "uri": "pine_sapling_small_merged.bin"
    }
  ]
}
