{
  "asset": {
    "generator": "HumanityOS scripts/repack-plant-gltf.js --split (bark/trunk part)",
    "version": "2.0"
  },
  "scene": 0,
  "scenes": [
    {
      "name": "Scene",
      "nodes": [
        0
      ]
    }
  ],
  "nodes": [
    {
      "mesh": 0,
      "name": "pine_sapling_small_v1_bark"
    }
  ],
  "meshes": [
    {
      "name": "pine_sapling_small_v1_bark",
      "primitives": [
        {
          "attributes": {
            "POSITION": 0,
            "NORMAL": 1,
            "TEXCOORD_0": 2
          },
          "indices": 3,
          "mode": 4,
          "material": 0
        }
      ]
    }
  ],
  "accessors": [
    {
      "bufferView": 0,
      "componentType": 5126,
      "count": 351,
      "type": "VEC3",
      "min": [
        -0.2592828571796417,
        -0.015484155155718327,
        -0.3082604706287384
      ],
      "max": [
        0.2923082411289215,
        1.149692177772522,
        0.2279318869113922
      ]
    },
    {
      "bufferView": 1,
      "componentType": 5126,
      "count": 351,
      "type": "VEC3"
    },
    {
      "bufferView": 2,
      "componentType": 5126,
      "count": 351,
      "type": "VEC2"
    },
    {
      "bufferView": 3,
      "componentType": 5123,
      "count": 1620,
      "type": "SCALAR"
    }
  ],
  "bufferViews": [
    {
      "buffer": 0,
      "byteOffset": 0,
      "byteLength": 4212,
      "target": 34962
    },
    {
      "buffer": 0,
      "byteOffset": 4212,
      "byteLength": 4212,
      "target": 34962
    },
    {
      "buffer": 0,
      "byteOffset": 8424,
      "byteLength": 2808,
      "target": 34962
    },
    {
      "buffer": 0,
      "byteOffset": 11232,
      "byteLength": 3240,
      "target": 34963
    }
  ],
  "buffers": [
    {
      "byteLength": 14472,
      "uri": "pine_sapling_small_v1_bark.bin"
    }
  ],
  "materials": [
    {
      "name": "pine_sapling_small_bark",
      "pbrMetallicRoughness": {
        "baseColorTexture": {
          "index": 0
        },
        "metallicFactor": 0
      },
      "doubleSided": true
    }
  ],
  "textures": [
    {
      "sampler": 0,
      "source": 0
    }
  ],
  "images": [
    {
      "mimeType": "image/jpeg",
      "uri": "textures/pine_sapling_small_bark_diff_2k.jpg"
    }
  ],
  "samplers": [
    {
      "magFilter": 9729,
      "minFilter": 9987
    }
  ]
}
