{"asset":{"version":"2.0","generator":"obj-to-plant-gltf.js (HumanityOS, Quaternius CC0 source)"},"scene":0,"scenes":[{"nodes":[0]}],"nodes":[{"mesh":0,"name":"corn_crop"}],"meshes":[{"name":"corn_crop","primitives":[{"attributes":{"POSITION":0,"NORMAL":1,"TEXCOORD_0":2},"indices":3,"material":0}]}],"materials":[{"name":"palette","pbrMetallicRoughness":{"baseColorTexture":{"index":0},"metallicFactor":0,"roughnessFactor":0.9}}],"textures":[{"sampler":0,"source":0}],"samplers":[{"magFilter":9728,"minFilter":9728,"wrapS":33071,"wrapT":33071}],"images":[{"uri":"corn_crop_palette.png"}],"buffers":[{"uri":"corn_crop.bin","byteLength":6592}],"bufferViews":[{"buffer":0,"byteOffset":0,"byteLength":2112},{"buffer":0,"byteOffset":2112,"byteLength":2112},{"buffer":0,"byteOffset":4224,"byteLength":1408},{"buffer":0,"byteOffset":5632,"byteLength":960}],"accessors":[{"bufferView":0,"componentType":5126,"count":176,"type":"VEC3","min":[-0.058815,-0.074437,-0.074417],"max":[0.289351,0.07437,0.074391]},{"bufferView":1,"componentType":5126,"count":176,"type":"VEC3"},{"bufferView":2,"componentType":5126,"count":176,"type":"VEC2"},{"bufferView":3,"componentType":5125,"count":240,"type":"SCALAR"}]}