{"asset":{"version":"2.0","generator":"obj-to-plant-gltf.js (HumanityOS, Quaternius CC0 source)"},"scene":0,"scenes":[{"nodes":[0]}],"nodes":[{"mesh":0,"name":"chaircushion"}],"meshes":[{"name":"chaircushion","primitives":[{"attributes":{"POSITION":0,"NORMAL":1,"TEXCOORD_0":2},"indices":3,"material":0}]}],"materials":[{"name":"palette","pbrMetallicRoughness":{"baseColorTexture":{"index":0},"metallicFactor":0,"roughnessFactor":0.9}}],"textures":[{"sampler":0,"source":0}],"samplers":[{"magFilter":9728,"minFilter":9728,"wrapS":33071,"wrapT":33071}],"images":[{"uri":"chaircushion_palette.png"}],"buffers":[{"uri":"chaircushion.bin","byteLength":13520}],"bufferViews":[{"buffer":0,"byteOffset":0,"byteLength":3288},{"buffer":0,"byteOffset":3288,"byteLength":3288},{"buffer":0,"byteOffset":6576,"byteLength":2192},{"buffer":0,"byteOffset":8768,"byteLength":4752}],"accessors":[{"bufferView":0,"componentType":5126,"count":274,"type":"VEC3","min":[-0.2,0,0],"max":[0,0.46,0.2]},{"bufferView":1,"componentType":5126,"count":274,"type":"VEC3"},{"bufferView":2,"componentType":5126,"count":274,"type":"VEC2"},{"bufferView":3,"componentType":5125,"count":1188,"type":"SCALAR"}]}