<svg xmlns="http://www.w3.org/2000/svg" viewBox="0 0 512 512" width="512" height="512">
  <g stroke="#FFFFFF" stroke-width="16" stroke-linecap="round" stroke-linejoin="round" fill="none">
    <circle cx="256" cy="256" r="72" />
    <path d="M256,68 L276,130 A130,130 0 0 1 340,164 L398,138 L372,206
             A130,130 0 0 1 380,256 L444,264 L420,328 A130,130 0 0 1 372,370
             L398,424 L340,412 A130,130 0 0 1 276,444 L256,444 L236,444
             A130,130 0 0 1 172,412 L114,424 L140,370 A130,130 0 0 1 92,328
             L68,264 L132,256 A130,130 0 0 1 140,206 L114,138 L172,164
             A130,130 0 0 1 236,130 Z" />
  </g>
</svg>