{"asset":{"version":"2.0","generator":"obj-to-plant-gltf.js (HumanityOS, Quaternius CC0 source)"},"scene":0,"scenes":[{"nodes":[0]}],"nodes":[{"mesh":0,"name":"flower_3"}],"meshes":[{"name":"flower_3","primitives":[{"attributes":{"POSITION":0,"NORMAL":1,"TEXCOORD_0":2},"indices":3,"material":0}]}],"materials":[{"name":"palette","pbrMetallicRoughness":{"baseColorTexture":{"index":0},"metallicFactor":0,"roughnessFactor":0.9}}],"textures":[{"sampler":0,"source":0}],"samplers":[{"magFilter":9728,"minFilter":9728,"wrapS":33071,"wrapT":33071}],"images":[{"uri":"flower_3_palette.png"}],"buffers":[{"uri":"flower_3.bin","byteLength":11744}],"bufferViews":[{"buffer":0,"byteOffset":0,"byteLength":3720},{"buffer":0,"byteOffset":3720,"byteLength":3720},{"buffer":0,"byteOffset":7440,"byteLength":2480},{"buffer":0,"byteOffset":9920,"byteLength":1824}],"accessors":[{"bufferView":0,"componentType":5126,"count":310,"type":"VEC3","min":[-0.100065,-0.000307,-0.101469],"max":[0.094081,0.506834,0.097772]},{"bufferView":1,"componentType":5126,"count":310,"type":"VEC3"},{"bufferView":2,"componentType":5126,"count":310,"type":"VEC2"},{"bufferView":3,"componentType":5125,"count":456,"type":"SCALAR"}]}