{
  "asset": {
    "generator": "HumanityOS scripts/repack-plant-gltf.js --split (one variant, base re-centered, transforms baked)",
    "version": "2.0"
  },
  "scene": 0,
  "scenes": [
    {
      "name": "Scene",
      "nodes": [
        0
      ]
    }
  ],
  "nodes": [
    {
      "mesh": 0,
      "name": "potted_plant_01_v1"
    }
  ],
  "meshes": [
    {
      "name": "potted_plant_01_v1",
      "primitives": [
        {
          "attributes": {
            "POSITION": 0,
            "NORMAL": 1,
            "TEXCOORD_0": 2
          },
          "indices": 3,
          "mode": 4,
          "material": 0
        }
      ]
    }
  ],
  "accessors": [
    {
      "bufferView": 0,
      "componentType": 5126,
      "count": 113951,
      "type": "VEC3",
      "min": [
        -0.33836790919303894,
        -0.013706624507904053,
        -0.36053505539894104
      ],
      "max": [
        0.24901922047138214,
        1.336457371711731,
        0.27302974462509155
      ]
    },
    {
      "bufferView": 1,
      "componentType": 5126,
      "count": 113951,
      "type": "VEC3"
    },
    {
      "bufferView": 2,
      "componentType": 5126,
      "count": 113951,
      "type": "VEC2"
    },
    {
      "bufferView": 3,
      "componentType": 5125,
      "count": 528678,
      "type": "SCALAR"
    }
  ],
  "bufferViews": [
    {
      "buffer": 0,
      "byteOffset": 0,
      "byteLength": 1367412,
      "target": 34962
    },
    {
      "buffer": 0,
      "byteOffset": 1367412,
      "byteLength": 1367412,
      "target": 34962
    },
    {
      "buffer": 0,
      "byteOffset": 2734824,
      "byteLength": 911608,
      "target": 34962
    },
    {
      "buffer": 0,
      "byteOffset": 3646432,
      "byteLength": 2114712,
      "target": 34963
    }
  ],
  "buffers": [
    {
      "byteLength": 5761144,
      "uri": "potted_plant_01_v1.bin"
    }
  ],
  "materials": [
    {
      "name": "potted_plant_01_leaves",
      "pbrMetallicRoughness": {
        "baseColorTexture": {
          "index": 0
        },
        "metallicFactor": 0
      },
      "alphaMode": "MASK",
      "alphaCutoff": 0.5,
      "doubleSided": true
    }
  ],
  "textures": [
    {
      "sampler": 0,
      "source": 0
    }
  ],
  "images": [
    {
      "mimeType": "image/jpeg",
      "uri": "textures/potted_plant_01_leaves_diff_2k.jpg"
    }
  ],
  "samplers": [
    {
      "magFilter": 9729,
      "minFilter": 9987
    }
  ]
}
