{"asset":{"version":"2.0","generator":"obj-to-plant-gltf.js (HumanityOS, Quaternius CC0 source)"},"scene":0,"scenes":[{"nodes":[0]}],"nodes":[{"mesh":0,"name":"palmtree_2"}],"meshes":[{"name":"palmtree_2","primitives":[{"attributes":{"POSITION":0,"NORMAL":1,"TEXCOORD_0":2},"indices":3,"material":0}]}],"materials":[{"name":"palette","pbrMetallicRoughness":{"baseColorTexture":{"index":0},"metallicFactor":0,"roughnessFactor":0.9}}],"textures":[{"sampler":0,"source":0}],"samplers":[{"magFilter":9728,"minFilter":9728,"wrapS":33071,"wrapT":33071}],"images":[{"uri":"palmtree_2_palette.png"}],"buffers":[{"uri":"palmtree_2.bin","byteLength":59616}],"bufferViews":[{"buffer":0,"byteOffset":0,"byteLength":18864},{"buffer":0,"byteOffset":18864,"byteLength":18864},{"buffer":0,"byteOffset":37728,"byteLength":12576},{"buffer":0,"byteOffset":50304,"byteLength":9312}],"accessors":[{"bufferView":0,"componentType":5126,"count":1572,"type":"VEC3","min":[-0.482793,-0.026333,-0.756793],"max":[0.611566,1.498396,0.680473]},{"bufferView":1,"componentType":5126,"count":1572,"type":"VEC3"},{"bufferView":2,"componentType":5126,"count":1572,"type":"VEC2"},{"bufferView":3,"componentType":5125,"count":2328,"type":"SCALAR"}]}