{"asset":{"version":"2.0","generator":"obj-to-plant-gltf.js (HumanityOS, Quaternius CC0 source)"},"scene":0,"scenes":[{"nodes":[0]}],"nodes":[{"mesh":0,"name":"orange_3"}],"meshes":[{"name":"orange_3","primitives":[{"attributes":{"POSITION":0,"NORMAL":1,"TEXCOORD_0":2},"indices":3,"material":0}]}],"materials":[{"name":"palette","pbrMetallicRoughness":{"baseColorTexture":{"index":0},"metallicFactor":0,"roughnessFactor":0.9}}],"textures":[{"sampler":0,"source":0}],"samplers":[{"magFilter":9728,"minFilter":9728,"wrapS":33071,"wrapT":33071}],"images":[{"uri":"orange_3_palette.png"}],"buffers":[{"uri":"orange_3.bin","byteLength":25472}],"bufferViews":[{"buffer":0,"byteOffset":0,"byteLength":8040},{"buffer":0,"byteOffset":8040,"byteLength":8040},{"buffer":0,"byteOffset":16080,"byteLength":5360},{"buffer":0,"byteOffset":21440,"byteLength":4032}],"accessors":[{"bufferView":0,"componentType":5126,"count":670,"type":"VEC3","min":[-0.104356,-0.000005,-0.874371],"max":[0.817343,2.124262,0.240828]},{"bufferView":1,"componentType":5126,"count":670,"type":"VEC3"},{"bufferView":2,"componentType":5126,"count":670,"type":"VEC2"},{"bufferView":3,"componentType":5125,"count":1008,"type":"SCALAR"}]}