{"asset":{"version":"2.0","generator":"obj-to-plant-gltf.js (HumanityOS, Quaternius CC0 source)"},"scene":0,"scenes":[{"nodes":[0]}],"nodes":[{"mesh":0,"name":"table"}],"meshes":[{"name":"table","primitives":[{"attributes":{"POSITION":0,"NORMAL":1,"TEXCOORD_0":2},"indices":3,"material":0}]}],"materials":[{"name":"palette","pbrMetallicRoughness":{"baseColorTexture":{"index":0},"metallicFactor":0,"roughnessFactor":0.9}}],"textures":[{"sampler":0,"source":0}],"samplers":[{"magFilter":9728,"minFilter":9728,"wrapS":33071,"wrapT":33071}],"images":[{"uri":"table_palette.png"}],"buffers":[{"uri":"table.bin","byteLength":8256}],"bufferViews":[{"buffer":0,"byteOffset":0,"byteLength":2016},{"buffer":0,"byteOffset":2016,"byteLength":2016},{"buffer":0,"byteOffset":4032,"byteLength":1344},{"buffer":0,"byteOffset":5376,"byteLength":2880}],"accessors":[{"bufferView":0,"componentType":5126,"count":168,"type":"VEC3","min":[-0.8414879,0,0],"max":[0,0.326734,0.4473733]},{"bufferView":1,"componentType":5126,"count":168,"type":"VEC3"},{"bufferView":2,"componentType":5126,"count":168,"type":"VEC2"},{"bufferView":3,"componentType":5125,"count":720,"type":"SCALAR"}]}