{"asset":{"version":"2.0","generator":"obj-to-plant-gltf.js (HumanityOS, Quaternius CC0 source)"},"scene":0,"scenes":[{"nodes":[0]}],"nodes":[{"mesh":0,"name":"carrot_4"}],"meshes":[{"name":"carrot_4","primitives":[{"attributes":{"POSITION":0,"NORMAL":1,"TEXCOORD_0":2},"indices":3,"material":0}]}],"materials":[{"name":"palette","pbrMetallicRoughness":{"baseColorTexture":{"index":0},"metallicFactor":0,"roughnessFactor":0.9}}],"textures":[{"sampler":0,"source":0}],"samplers":[{"magFilter":9728,"minFilter":9728,"wrapS":33071,"wrapT":33071}],"images":[{"uri":"carrot_4_palette.png"}],"buffers":[{"uri":"carrot_4.bin","byteLength":40280}],"bufferViews":[{"buffer":0,"byteOffset":0,"byteLength":12792},{"buffer":0,"byteOffset":12792,"byteLength":12792},{"buffer":0,"byteOffset":25584,"byteLength":8528},{"buffer":0,"byteOffset":34112,"byteLength":6168}],"accessors":[{"bufferView":0,"componentType":5126,"count":1066,"type":"VEC3","min":[-0.378556,-0.60972,-0.305674],"max":[0.297972,0.669452,0.195894]},{"bufferView":1,"componentType":5126,"count":1066,"type":"VEC3"},{"bufferView":2,"componentType":5126,"count":1066,"type":"VEC2"},{"bufferView":3,"componentType":5125,"count":1542,"type":"SCALAR"}]}