{"asset":{"version":"2.0","generator":"obj-to-plant-gltf.js (HumanityOS, Quaternius CC0 source)"},"scene":0,"scenes":[{"nodes":[0]}],"nodes":[{"mesh":0,"name":"cactus_3"}],"meshes":[{"name":"cactus_3","primitives":[{"attributes":{"POSITION":0,"NORMAL":1,"TEXCOORD_0":2},"indices":3,"material":0}]}],"materials":[{"name":"palette","pbrMetallicRoughness":{"baseColorTexture":{"index":0},"metallicFactor":0,"roughnessFactor":0.9}}],"textures":[{"sampler":0,"source":0}],"samplers":[{"magFilter":9728,"minFilter":9728,"wrapS":33071,"wrapT":33071}],"images":[{"uri":"cactus_3_palette.png"}],"buffers":[{"uri":"cactus_3.bin","byteLength":28416}],"bufferViews":[{"buffer":0,"byteOffset":0,"byteLength":9216},{"buffer":0,"byteOffset":9216,"byteLength":9216},{"buffer":0,"byteOffset":18432,"byteLength":6144},{"buffer":0,"byteOffset":24576,"byteLength":3840}],"accessors":[{"bufferView":0,"componentType":5126,"count":768,"type":"VEC3","min":[-0.191374,-0.007683,-0.192366],"max":[0.202338,0.71403,0.189629]},{"bufferView":1,"componentType":5126,"count":768,"type":"VEC3"},{"bufferView":2,"componentType":5126,"count":768,"type":"VEC2"},{"bufferView":3,"componentType":5125,"count":960,"type":"SCALAR"}]}