{"asset":{"version":"2.0","generator":"obj-to-plant-gltf.js (HumanityOS, Quaternius CC0 source)"},"scene":0,"scenes":[{"nodes":[0]}],"nodes":[{"mesh":0,"name":"mushroom_1"}],"meshes":[{"name":"mushroom_1","primitives":[{"attributes":{"POSITION":0,"NORMAL":1,"TEXCOORD_0":2},"indices":3,"material":0}]}],"materials":[{"name":"palette","pbrMetallicRoughness":{"baseColorTexture":{"index":0},"metallicFactor":0,"roughnessFactor":0.9}}],"textures":[{"sampler":0,"source":0}],"samplers":[{"magFilter":9728,"minFilter":9728,"wrapS":33071,"wrapT":33071}],"images":[{"uri":"mushroom_1_palette.png"}],"buffers":[{"uri":"mushroom_1.bin","byteLength":12160}],"bufferViews":[{"buffer":0,"byteOffset":0,"byteLength":3840},{"buffer":0,"byteOffset":3840,"byteLength":3840},{"buffer":0,"byteOffset":7680,"byteLength":2560},{"buffer":0,"byteOffset":10240,"byteLength":1920}],"accessors":[{"bufferView":0,"componentType":5126,"count":320,"type":"VEC3","min":[-0.05326,0.000479,-0.055073],"max":[0.05524,0.119118,0.053427]},{"bufferView":1,"componentType":5126,"count":320,"type":"VEC3"},{"bufferView":2,"componentType":5126,"count":320,"type":"VEC2"},{"bufferView":3,"componentType":5125,"count":480,"type":"SCALAR"}]}