{"asset":{"version":"2.0","generator":"obj-to-plant-gltf.js (HumanityOS, Quaternius CC0 source)"},"scene":0,"scenes":[{"nodes":[0]}],"nodes":[{"mesh":0,"name":"rice_2"}],"meshes":[{"name":"rice_2","primitives":[{"attributes":{"POSITION":0,"NORMAL":1,"TEXCOORD_0":2},"indices":3,"material":0}]}],"materials":[{"name":"palette","pbrMetallicRoughness":{"baseColorTexture":{"index":0},"metallicFactor":0,"roughnessFactor":0.9}}],"textures":[{"sampler":0,"source":0}],"samplers":[{"magFilter":9728,"minFilter":9728,"wrapS":33071,"wrapT":33071}],"images":[{"uri":"rice_2_palette.png"}],"buffers":[{"uri":"rice_2.bin","byteLength":22728}],"bufferViews":[{"buffer":0,"byteOffset":0,"byteLength":7200},{"buffer":0,"byteOffset":7200,"byteLength":7200},{"buffer":0,"byteOffset":14400,"byteLength":4800},{"buffer":0,"byteOffset":19200,"byteLength":3528}],"accessors":[{"bufferView":0,"componentType":5126,"count":600,"type":"VEC3","min":[-0.164613,-0.015084,-0.060733],"max":[0.09005,0.54967,0.066477]},{"bufferView":1,"componentType":5126,"count":600,"type":"VEC3"},{"bufferView":2,"componentType":5126,"count":600,"type":"VEC2"},{"bufferView":3,"componentType":5125,"count":882,"type":"SCALAR"}]}