{"asset":{"version":"2.0","generator":"obj-to-plant-gltf.js (HumanityOS, Quaternius CC0 source)"},"scene":0,"scenes":[{"nodes":[0]}],"nodes":[{"mesh":0,"name":"bushberries_3"}],"meshes":[{"name":"bushberries_3","primitives":[{"attributes":{"POSITION":0,"NORMAL":1,"TEXCOORD_0":2},"indices":3,"material":0}]}],"materials":[{"name":"palette","pbrMetallicRoughness":{"baseColorTexture":{"index":0},"metallicFactor":0,"roughnessFactor":0.9}}],"textures":[{"sampler":0,"source":0}],"samplers":[{"magFilter":9728,"minFilter":9728,"wrapS":33071,"wrapT":33071}],"images":[{"uri":"bushberries_3_palette.png"}],"buffers":[{"uri":"bushberries_3.bin","byteLength":12400}],"bufferViews":[{"buffer":0,"byteOffset":0,"byteLength":3912},{"buffer":0,"byteOffset":3912,"byteLength":3912},{"buffer":0,"byteOffset":7824,"byteLength":2608},{"buffer":0,"byteOffset":10432,"byteLength":1968}],"accessors":[{"bufferView":0,"componentType":5126,"count":326,"type":"VEC3","min":[-0.631094,-0.008777,-0.523079],"max":[0.64348,0.735034,0.584653]},{"bufferView":1,"componentType":5126,"count":326,"type":"VEC3"},{"bufferView":2,"componentType":5126,"count":326,"type":"VEC2"},{"bufferView":3,"componentType":5125,"count":492,"type":"SCALAR"}]}