{"asset":{"version":"2.0","generator":"obj-to-plant-gltf.js (HumanityOS, Quaternius CC0 source)"},"scene":0,"scenes":[{"nodes":[0]}],"nodes":[{"mesh":0,"name":"bamboo_2"}],"meshes":[{"name":"bamboo_2","primitives":[{"attributes":{"POSITION":0,"NORMAL":1,"TEXCOORD_0":2},"indices":3,"material":0}]}],"materials":[{"name":"palette","pbrMetallicRoughness":{"baseColorTexture":{"index":0},"metallicFactor":0,"roughnessFactor":0.9}}],"textures":[{"sampler":0,"source":0}],"samplers":[{"magFilter":9728,"minFilter":9728,"wrapS":33071,"wrapT":33071}],"images":[{"uri":"bamboo_2_palette.png"}],"buffers":[{"uri":"bamboo_2.bin","byteLength":21008}],"bufferViews":[{"buffer":0,"byteOffset":0,"byteLength":6528},{"buffer":0,"byteOffset":6528,"byteLength":6528},{"buffer":0,"byteOffset":13056,"byteLength":4352},{"buffer":0,"byteOffset":17408,"byteLength":3600}],"accessors":[{"bufferView":0,"componentType":5126,"count":544,"type":"VEC3","min":[-0.090254,-0.003168,-0.082239],"max":[0.11502,0.729848,0.0653]},{"bufferView":1,"componentType":5126,"count":544,"type":"VEC3"},{"bufferView":2,"componentType":5126,"count":544,"type":"VEC2"},{"bufferView":3,"componentType":5125,"count":900,"type":"SCALAR"}]}