<svg xmlns="http://www.w3.org/2000/svg" viewBox="0 0 48 48" fill="white">
  <path d="M24 4C12.95 4 4 12.95 4 24c0 5.52 2.24 10.52 5.86 14.14l10.28-4.28c.52.18 1.08.28 1.66.28.26 0 .52-.02.78-.06l4.62 6.58c.06 0 .12.01.18.01 5.52 0 10-4.48 10-10 0-5.18-3.94-9.44-8.98-9.94L23.4 15.4c.04-.46.06-.93.06-1.4 0-5.52-4.48-10-10-10-.52 0-1.04.04-1.54.12L7.1 6.82C11.14 4.98 15.62 4 20.4 4H24zM13.46 6c4.42 0 8 3.58 8 8s-3.58 8-8 8-8-3.58-8-8 3.58-8 8-8zm0 3c-2.76 0-5 2.24-5 5s2.24 5 5 5 5-2.24 5-5-2.24-5-5-5zm0 2c1.66 0 3 1.34 3 3s-1.34 3-3 3-3-1.34-3-3 1.34-3 3-3zm14.92 13c4.42 0 8 3.58 8 8s-3.58 8-8 8-8-3.58-8-8 3.58-8 8-8zm0 3c-2.76 0-5 2.24-5 5s2.24 5 5 5 5-2.24 5-5-2.24-5-5-5zm0 2c1.66 0 3 1.34 3 3s-1.34 3-3 3-3-1.34-3-3 1.34-3 3-3z"/>
</svg>