<svg xmlns="http://www.w3.org/2000/svg" viewBox="0 0 48 48" fill="white">
  <path d="M24 4C12.95 4 4 12.95 4 24s8.95 20 20 20 20-8.95 20-20S35.05 4 24 4zm0 3c9.37 0 17 7.63 17 17s-7.63 17-17 17S7 33.37 7 24 14.63 7 24 7z"/>
  <path d="M16.5 14l-3.2-3.2C15.8 8.6 19.7 7 24 7c4.3 0 8.2 1.6 10.7 3.8L31.5 14 24 22.5 16.5 14z"/>
  <path d="M14 16.5L6.8 13.3C5.1 16.3 4 19.9 4 24c0 6.2 2.8 11.7 7.2 15.3L14 31.5l6-9-6-6z"/>
  <path d="M34 16.5l-6 6 6 9 2.8 7.8C41.2 35.7 44 30.2 44 24c0-4.1-1.1-7.7-2.8-10.7L34 16.5z"/>
  <path d="M16.5 34l-5.3 5.3C14.2 42 18.8 44 24 44s9.8-2 12.8-4.7L31.5 34 24 25.5 16.5 34z"/>
</svg>