{"asset":{"version":"2.0","generator":"obj-to-plant-gltf.js (HumanityOS, Quaternius CC0 source)"},"scene":0,"scenes":[{"nodes":[0]}],"nodes":[{"mesh":0,"name":"carrot_crop"}],"meshes":[{"name":"carrot_crop","primitives":[{"attributes":{"POSITION":0,"NORMAL":1,"TEXCOORD_0":2},"indices":3,"material":0}]}],"materials":[{"name":"palette","pbrMetallicRoughness":{"baseColorTexture":{"index":0},"metallicFactor":0,"roughnessFactor":0.9}}],"textures":[{"sampler":0,"source":0}],"samplers":[{"magFilter":9728,"minFilter":9728,"wrapS":33071,"wrapT":33071}],"images":[{"uri":"carrot_crop_palette.png"}],"buffers":[{"uri":"carrot_crop.bin","byteLength":14584}],"bufferViews":[{"buffer":0,"byteOffset":0,"byteLength":4632},{"buffer":0,"byteOffset":4632,"byteLength":4632},{"buffer":0,"byteOffset":9264,"byteLength":3088},{"buffer":0,"byteOffset":12352,"byteLength":2232}],"accessors":[{"bufferView":0,"componentType":5126,"count":386,"type":"VEC3","min":[-0.119228,-0.646195,-0.102238],"max":[0.119797,0.234733,0.136788]},{"bufferView":1,"componentType":5126,"count":386,"type":"VEC3"},{"bufferView":2,"componentType":5126,"count":386,"type":"VEC2"},{"bufferView":3,"componentType":5125,"count":558,"type":"SCALAR"}]}