{"asset":{"version":"2.0","generator":"obj-to-plant-gltf.js (HumanityOS, Quaternius CC0 source)"},"scene":0,"scenes":[{"nodes":[0]}],"nodes":[{"mesh":0,"name":"watermelon_3"}],"meshes":[{"name":"watermelon_3","primitives":[{"attributes":{"POSITION":0,"NORMAL":1,"TEXCOORD_0":2},"indices":3,"material":0}]}],"materials":[{"name":"palette","pbrMetallicRoughness":{"baseColorTexture":{"index":0},"metallicFactor":0,"roughnessFactor":0.9}}],"textures":[{"sampler":0,"source":0}],"samplers":[{"magFilter":9728,"minFilter":9728,"wrapS":33071,"wrapT":33071}],"images":[{"uri":"watermelon_3_palette.png"}],"buffers":[{"uri":"watermelon_3.bin","byteLength":133152}],"bufferViews":[{"buffer":0,"byteOffset":0,"byteLength":42048},{"buffer":0,"byteOffset":42048,"byteLength":42048},{"buffer":0,"byteOffset":84096,"byteLength":28032},{"buffer":0,"byteOffset":112128,"byteLength":21024}],"accessors":[{"bufferView":0,"componentType":5126,"count":3504,"type":"VEC3","min":[-0.478439,-0.030876,-0.402418],"max":[0.396995,0.362475,0.346825]},{"bufferView":1,"componentType":5126,"count":3504,"type":"VEC3"},{"bufferView":2,"componentType":5126,"count":3504,"type":"VEC2"},{"bufferView":3,"componentType":5125,"count":5256,"type":"SCALAR"}]}