{"asset":{"version":"2.0","generator":"obj-to-plant-gltf.js (HumanityOS, Quaternius CC0 source)"},"scene":0,"scenes":[{"nodes":[0]}],"nodes":[{"mesh":0,"name":"wheat_1"}],"meshes":[{"name":"wheat_1","primitives":[{"attributes":{"POSITION":0,"NORMAL":1,"TEXCOORD_0":2},"indices":3,"material":0}]}],"materials":[{"name":"palette","pbrMetallicRoughness":{"baseColorTexture":{"index":0},"metallicFactor":0,"roughnessFactor":0.9}}],"textures":[{"sampler":0,"source":0}],"samplers":[{"magFilter":9728,"minFilter":9728,"wrapS":33071,"wrapT":33071}],"images":[{"uri":"wheat_1_palette.png"}],"buffers":[{"uri":"wheat_1.bin","byteLength":3104}],"bufferViews":[{"buffer":0,"byteOffset":0,"byteLength":984},{"buffer":0,"byteOffset":984,"byteLength":984},{"buffer":0,"byteOffset":1968,"byteLength":656},{"buffer":0,"byteOffset":2624,"byteLength":480}],"accessors":[{"bufferView":0,"componentType":5126,"count":82,"type":"VEC3","min":[-0.118241,-0.000306,-0.015384],"max":[0.003181,0.219139,0.017868]},{"bufferView":1,"componentType":5126,"count":82,"type":"VEC3"},{"bufferView":2,"componentType":5126,"count":82,"type":"VEC2"},{"bufferView":3,"componentType":5125,"count":120,"type":"SCALAR"}]}