{"asset":{"version":"2.0","generator":"obj-to-plant-gltf.js (HumanityOS, Quaternius CC0 source)"},"scene":0,"scenes":[{"nodes":[0]}],"nodes":[{"mesh":0,"name":"carrot_3"}],"meshes":[{"name":"carrot_3","primitives":[{"attributes":{"POSITION":0,"NORMAL":1,"TEXCOORD_0":2},"indices":3,"material":0}]}],"materials":[{"name":"palette","pbrMetallicRoughness":{"baseColorTexture":{"index":0},"metallicFactor":0,"roughnessFactor":0.9}}],"textures":[{"sampler":0,"source":0}],"samplers":[{"magFilter":9728,"minFilter":9728,"wrapS":33071,"wrapT":33071}],"images":[{"uri":"carrot_3_palette.png"}],"buffers":[{"uri":"carrot_3.bin","byteLength":31520}],"bufferViews":[{"buffer":0,"byteOffset":0,"byteLength":9984},{"buffer":0,"byteOffset":9984,"byteLength":9984},{"buffer":0,"byteOffset":19968,"byteLength":6656},{"buffer":0,"byteOffset":26624,"byteLength":4896}],"accessors":[{"bufferView":0,"componentType":5126,"count":832,"type":"VEC3","min":[-0.182281,-0.244138,-0.171135],"max":[0.151328,0.27736,0.087085]},{"bufferView":1,"componentType":5126,"count":832,"type":"VEC3"},{"bufferView":2,"componentType":5126,"count":832,"type":"VEC2"},{"bufferView":3,"componentType":5125,"count":1224,"type":"SCALAR"}]}