{"asset":{"version":"2.0","generator":"obj-to-plant-gltf.js (HumanityOS, Quaternius CC0 source)"},"scene":0,"scenes":[{"nodes":[0]}],"nodes":[{"mesh":0,"name":"rice_3"}],"meshes":[{"name":"rice_3","primitives":[{"attributes":{"POSITION":0,"NORMAL":1,"TEXCOORD_0":2},"indices":3,"material":0}]}],"materials":[{"name":"palette","pbrMetallicRoughness":{"baseColorTexture":{"index":0},"metallicFactor":0,"roughnessFactor":0.9}}],"textures":[{"sampler":0,"source":0}],"samplers":[{"magFilter":9728,"minFilter":9728,"wrapS":33071,"wrapT":33071}],"images":[{"uri":"rice_3_palette.png"}],"buffers":[{"uri":"rice_3.bin","byteLength":48560}],"bufferViews":[{"buffer":0,"byteOffset":0,"byteLength":15384},{"buffer":0,"byteOffset":15384,"byteLength":15384},{"buffer":0,"byteOffset":30768,"byteLength":10256},{"buffer":0,"byteOffset":41024,"byteLength":7536}],"accessors":[{"bufferView":0,"componentType":5126,"count":1282,"type":"VEC3","min":[-0.279355,-0.023076,-0.107601],"max":[0.339236,0.746068,0.130751]},{"bufferView":1,"componentType":5126,"count":1282,"type":"VEC3"},{"bufferView":2,"componentType":5126,"count":1282,"type":"VEC2"},{"bufferView":3,"componentType":5125,"count":1884,"type":"SCALAR"}]}