{"asset":{"version":"2.0","generator":"obj-to-plant-gltf.js (HumanityOS, Quaternius CC0 source)"},"scene":0,"scenes":[{"nodes":[0]}],"nodes":[{"mesh":0,"name":"tomato_4"}],"meshes":[{"name":"tomato_4","primitives":[{"attributes":{"POSITION":0,"NORMAL":1,"TEXCOORD_0":2},"indices":3,"material":0}]}],"materials":[{"name":"palette","pbrMetallicRoughness":{"baseColorTexture":{"index":0},"metallicFactor":0,"roughnessFactor":0.9}}],"textures":[{"sampler":0,"source":0}],"samplers":[{"magFilter":9728,"minFilter":9728,"wrapS":33071,"wrapT":33071}],"images":[{"uri":"tomato_4_palette.png"}],"buffers":[{"uri":"tomato_4.bin","byteLength":125416}],"bufferViews":[{"buffer":0,"byteOffset":0,"byteLength":40200},{"buffer":0,"byteOffset":40200,"byteLength":40200},{"buffer":0,"byteOffset":80400,"byteLength":26800},{"buffer":0,"byteOffset":107200,"byteLength":18216}],"accessors":[{"bufferView":0,"componentType":5126,"count":3350,"type":"VEC3","min":[-0.369766,-0.000141,-0.336473],"max":[0.423415,1.719962,0.473529]},{"bufferView":1,"componentType":5126,"count":3350,"type":"VEC3"},{"bufferView":2,"componentType":5126,"count":3350,"type":"VEC2"},{"bufferView":3,"componentType":5125,"count":4554,"type":"SCALAR"}]}