{
  "asset": {
    "generator": "HumanityOS scripts/repack-plant-gltf.js --split (one variant, base re-centered, transforms baked)",
    "version": "2.0"
  },
  "scene": 0,
  "scenes": [
    {
      "name": "Scene",
      "nodes": [
        0
      ]
    }
  ],
  "nodes": [
    {
      "mesh": 0,
      "name": "shrub_01_v1"
    }
  ],
  "meshes": [
    {
      "name": "shrub_01_v1",
      "primitives": [
        {
          "attributes": {
            "POSITION": 0,
            "NORMAL": 1,
            "TEXCOORD_0": 2
          },
          "indices": 3,
          "mode": 4,
          "material": 0
        }
      ]
    }
  ],
  "accessors": [
    {
      "bufferView": 0,
      "componentType": 5126,
      "count": 105235,
      "type": "VEC3",
      "min": [
        -1.2752889394760132,
        -0.008752564899623394,
        -0.11833038926124573
      ],
      "max": [
        1.3113723993301392,
        0.38722172379493713,
        0.10023057460784912
      ]
    },
    {
      "bufferView": 1,
      "componentType": 5126,
      "count": 105235,
      "type": "VEC3"
    },
    {
      "bufferView": 2,
      "componentType": 5126,
      "count": 105235,
      "type": "VEC2"
    },
    {
      "bufferView": 3,
      "componentType": 5125,
      "count": 468036,
      "type": "SCALAR"
    }
  ],
  "bufferViews": [
    {
      "buffer": 0,
      "byteOffset": 0,
      "byteLength": 1262820,
      "target": 34962
    },
    {
      "buffer": 0,
      "byteOffset": 1262820,
      "byteLength": 1262820,
      "target": 34962
    },
    {
      "buffer": 0,
      "byteOffset": 2525640,
      "byteLength": 841880,
      "target": 34962
    },
    {
      "buffer": 0,
      "byteOffset": 3367520,
      "byteLength": 1872144,
      "target": 34963
    }
  ],
  "buffers": [
    {
      "byteLength": 5239664,
      "uri": "shrub_01_v1.bin"
    }
  ],
  "materials": [
    {
      "name": "shrub_01",
      "pbrMetallicRoughness": {
        "baseColorTexture": {
          "index": 0
        },
        "metallicFactor": 0
      },
      "alphaMode": "MASK",
      "alphaCutoff": 0.5,
      "doubleSided": true
    }
  ],
  "textures": [
    {
      "sampler": 0,
      "source": 0
    }
  ],
  "images": [
    {
      "mimeType": "image/jpeg",
      "uri": "textures/shrub_01_diff_2k.jpg"
    }
  ],
  "samplers": [
    {
      "magFilter": 9729,
      "minFilter": 9987
    }
  ]
}
