{"asset":{"version":"2.0","generator":"obj-to-plant-gltf.js (HumanityOS, Quaternius CC0 source)"},"scene":0,"scenes":[{"nodes":[0]}],"nodes":[{"mesh":0,"name":"beet_3"}],"meshes":[{"name":"beet_3","primitives":[{"attributes":{"POSITION":0,"NORMAL":1,"TEXCOORD_0":2},"indices":3,"material":0}]}],"materials":[{"name":"palette","pbrMetallicRoughness":{"baseColorTexture":{"index":0},"metallicFactor":0,"roughnessFactor":0.9}}],"textures":[{"sampler":0,"source":0}],"samplers":[{"magFilter":9728,"minFilter":9728,"wrapS":33071,"wrapT":33071}],"images":[{"uri":"beet_3_palette.png"}],"buffers":[{"uri":"beet_3.bin","byteLength":23172}],"bufferViews":[{"buffer":0,"byteOffset":0,"byteLength":7236},{"buffer":0,"byteOffset":7236,"byteLength":7236},{"buffer":0,"byteOffset":14472,"byteLength":4824},{"buffer":0,"byteOffset":19296,"byteLength":3876}],"accessors":[{"bufferView":0,"componentType":5126,"count":603,"type":"VEC3","min":[-0.193462,-0.265779,-0.115018],"max":[0.315826,0.603059,0.115018]},{"bufferView":1,"componentType":5126,"count":603,"type":"VEC3"},{"bufferView":2,"componentType":5126,"count":603,"type":"VEC2"},{"bufferView":3,"componentType":5125,"count":969,"type":"SCALAR"}]}