{"asset":{"version":"2.0","generator":"obj-to-plant-gltf.js (HumanityOS, Quaternius CC0 source)"},"scene":0,"scenes":[{"nodes":[0]}],"nodes":[{"mesh":0,"name":"mushroom_crop"}],"meshes":[{"name":"mushroom_crop","primitives":[{"attributes":{"POSITION":0,"NORMAL":1,"TEXCOORD_0":2},"indices":3,"material":0}]}],"materials":[{"name":"palette","pbrMetallicRoughness":{"baseColorTexture":{"index":0},"metallicFactor":0,"roughnessFactor":0.9}}],"textures":[{"sampler":0,"source":0}],"samplers":[{"magFilter":9728,"minFilter":9728,"wrapS":33071,"wrapT":33071}],"images":[{"uri":"mushroom_crop_palette.png"}],"buffers":[{"uri":"mushroom_crop.bin","byteLength":103200}],"bufferViews":[{"buffer":0,"byteOffset":0,"byteLength":32940},{"buffer":0,"byteOffset":32940,"byteLength":32940},{"buffer":0,"byteOffset":65880,"byteLength":21960},{"buffer":0,"byteOffset":87840,"byteLength":15360}],"accessors":[{"bufferView":0,"componentType":5126,"count":2745,"type":"VEC3","min":[-0.224816,-0.06471,-0.204536],"max":[0.211493,0.053792,0.231773]},{"bufferView":1,"componentType":5126,"count":2745,"type":"VEC3"},{"bufferView":2,"componentType":5126,"count":2745,"type":"VEC2"},{"bufferView":3,"componentType":5125,"count":3840,"type":"SCALAR"}]}