{"asset":{"version":"2.0","generator":"obj-to-plant-gltf.js (HumanityOS, Quaternius CC0 source)"},"scene":0,"scenes":[{"nodes":[0]}],"nodes":[{"mesh":0,"name":"grass_3"}],"meshes":[{"name":"grass_3","primitives":[{"attributes":{"POSITION":0,"NORMAL":1,"TEXCOORD_0":2},"indices":3,"material":0}]}],"materials":[{"name":"palette","pbrMetallicRoughness":{"baseColorTexture":{"index":0},"metallicFactor":0,"roughnessFactor":0.9}}],"textures":[{"sampler":0,"source":0}],"samplers":[{"magFilter":9728,"minFilter":9728,"wrapS":33071,"wrapT":33071}],"images":[{"uri":"grass_3_palette.png"}],"buffers":[{"uri":"grass_3.bin","byteLength":8960}],"bufferViews":[{"buffer":0,"byteOffset":0,"byteLength":2856},{"buffer":0,"byteOffset":2856,"byteLength":2856},{"buffer":0,"byteOffset":5712,"byteLength":1904},{"buffer":0,"byteOffset":7616,"byteLength":1344}],"accessors":[{"bufferView":0,"componentType":5126,"count":238,"type":"VEC3","min":[-0.196952,-0.015862,-0.119389],"max":[0.176886,0.779325,0.163025]},{"bufferView":1,"componentType":5126,"count":238,"type":"VEC3"},{"bufferView":2,"componentType":5126,"count":238,"type":"VEC2"},{"bufferView":3,"componentType":5125,"count":336,"type":"SCALAR"}]}