{"asset":{"version":"2.0","generator":"obj-to-plant-gltf.js (HumanityOS, Quaternius CC0 source)"},"scene":0,"scenes":[{"nodes":[0]}],"nodes":[{"mesh":0,"name":"lettuce_2"}],"meshes":[{"name":"lettuce_2","primitives":[{"attributes":{"POSITION":0,"NORMAL":1,"TEXCOORD_0":2},"indices":3,"material":0}]}],"materials":[{"name":"palette","pbrMetallicRoughness":{"baseColorTexture":{"index":0},"metallicFactor":0,"roughnessFactor":0.9}}],"textures":[{"sampler":0,"source":0}],"samplers":[{"magFilter":9728,"minFilter":9728,"wrapS":33071,"wrapT":33071}],"images":[{"uri":"lettuce_2_palette.png"}],"buffers":[{"uri":"lettuce_2.bin","byteLength":30656}],"bufferViews":[{"buffer":0,"byteOffset":0,"byteLength":9696},{"buffer":0,"byteOffset":9696,"byteLength":9696},{"buffer":0,"byteOffset":19392,"byteLength":6464},{"buffer":0,"byteOffset":25856,"byteLength":4800}],"accessors":[{"bufferView":0,"componentType":5126,"count":808,"type":"VEC3","min":[-0.179975,-0.044053,-0.189455],"max":[0.188969,0.30997,0.177837]},{"bufferView":1,"componentType":5126,"count":808,"type":"VEC3"},{"bufferView":2,"componentType":5126,"count":808,"type":"VEC2"},{"bufferView":3,"componentType":5125,"count":1200,"type":"SCALAR"}]}