{"asset":{"version":"2.0","generator":"obj-to-plant-gltf.js (HumanityOS, Quaternius CC0 source)"},"scene":0,"scenes":[{"nodes":[0]}],"nodes":[{"mesh":0,"name":"beet_4"}],"meshes":[{"name":"beet_4","primitives":[{"attributes":{"POSITION":0,"NORMAL":1,"TEXCOORD_0":2},"indices":3,"material":0}]}],"materials":[{"name":"palette","pbrMetallicRoughness":{"baseColorTexture":{"index":0},"metallicFactor":0,"roughnessFactor":0.9}}],"textures":[{"sampler":0,"source":0}],"samplers":[{"magFilter":9728,"minFilter":9728,"wrapS":33071,"wrapT":33071}],"images":[{"uri":"beet_4_palette.png"}],"buffers":[{"uri":"beet_4.bin","byteLength":35712}],"bufferViews":[{"buffer":0,"byteOffset":0,"byteLength":11232},{"buffer":0,"byteOffset":11232,"byteLength":11232},{"buffer":0,"byteOffset":22464,"byteLength":7488},{"buffer":0,"byteOffset":29952,"byteLength":5760}],"accessors":[{"bufferView":0,"componentType":5126,"count":936,"type":"VEC3","min":[-0.345203,-0.320682,-0.232085],"max":[0.405963,0.781167,0.157806]},{"bufferView":1,"componentType":5126,"count":936,"type":"VEC3"},{"bufferView":2,"componentType":5126,"count":936,"type":"VEC2"},{"bufferView":3,"componentType":5125,"count":1440,"type":"SCALAR"}]}