{"asset":{"version":"2.0","generator":"obj-to-plant-gltf.js (HumanityOS, Quaternius CC0 source)"},"scene":0,"scenes":[{"nodes":[0]}],"nodes":[{"mesh":0,"name":"orange_2"}],"meshes":[{"name":"orange_2","primitives":[{"attributes":{"POSITION":0,"NORMAL":1,"TEXCOORD_0":2},"indices":3,"material":0}]}],"materials":[{"name":"palette","pbrMetallicRoughness":{"baseColorTexture":{"index":0},"metallicFactor":0,"roughnessFactor":0.9}}],"textures":[{"sampler":0,"source":0}],"samplers":[{"magFilter":9728,"minFilter":9728,"wrapS":33071,"wrapT":33071}],"images":[{"uri":"orange_2_palette.png"}],"buffers":[{"uri":"orange_2.bin","byteLength":19024}],"bufferViews":[{"buffer":0,"byteOffset":0,"byteLength":6000},{"buffer":0,"byteOffset":6000,"byteLength":6000},{"buffer":0,"byteOffset":12000,"byteLength":4000},{"buffer":0,"byteOffset":16000,"byteLength":3024}],"accessors":[{"bufferView":0,"componentType":5126,"count":500,"type":"VEC3","min":[-0.251684,-0.000003,-0.340282],"max":[0.186839,0.938923,0.181015]},{"bufferView":1,"componentType":5126,"count":500,"type":"VEC3"},{"bufferView":2,"componentType":5126,"count":500,"type":"VEC2"},{"bufferView":3,"componentType":5125,"count":756,"type":"SCALAR"}]}