{"asset":{"version":"2.0","generator":"obj-to-plant-gltf.js (HumanityOS, Quaternius CC0 source)"},"scene":0,"scenes":[{"nodes":[0]}],"nodes":[{"mesh":0,"name":"kitchenfridge"}],"meshes":[{"name":"kitchenfridge","primitives":[{"attributes":{"POSITION":0,"NORMAL":1,"TEXCOORD_0":2},"indices":3,"material":0}]}],"materials":[{"name":"palette","pbrMetallicRoughness":{"baseColorTexture":{"index":0},"metallicFactor":0,"roughnessFactor":0.9}}],"textures":[{"sampler":0,"source":0}],"samplers":[{"magFilter":9728,"minFilter":9728,"wrapS":33071,"wrapT":33071}],"images":[{"uri":"kitchenfridge_palette.png"}],"buffers":[{"uri":"kitchenfridge.bin","byteLength":15824}],"bufferViews":[{"buffer":0,"byteOffset":0,"byteLength":4512},{"buffer":0,"byteOffset":4512,"byteLength":4512},{"buffer":0,"byteOffset":9024,"byteLength":3008},{"buffer":0,"byteOffset":12032,"byteLength":3792}],"accessors":[{"bufferView":0,"componentType":5126,"count":376,"type":"VEC3","min":[-0.43,0,-0.01],"max":[0,0.92,0.2819339]},{"bufferView":1,"componentType":5126,"count":376,"type":"VEC3"},{"bufferView":2,"componentType":5126,"count":376,"type":"VEC2"},{"bufferView":3,"componentType":5125,"count":948,"type":"SCALAR"}]}