{"asset":{"version":"2.0","generator":"obj-to-plant-gltf.js (HumanityOS, Quaternius CC0 source)"},"scene":0,"scenes":[{"nodes":[0]}],"nodes":[{"mesh":0,"name":"cactus_4"}],"meshes":[{"name":"cactus_4","primitives":[{"attributes":{"POSITION":0,"NORMAL":1,"TEXCOORD_0":2},"indices":3,"material":0}]}],"materials":[{"name":"palette","pbrMetallicRoughness":{"baseColorTexture":{"index":0},"metallicFactor":0,"roughnessFactor":0.9}}],"textures":[{"sampler":0,"source":0}],"samplers":[{"magFilter":9728,"minFilter":9728,"wrapS":33071,"wrapT":33071}],"images":[{"uri":"cactus_4_palette.png"}],"buffers":[{"uri":"cactus_4.bin","byteLength":155400}],"bufferViews":[{"buffer":0,"byteOffset":0,"byteLength":50112},{"buffer":0,"byteOffset":50112,"byteLength":50112},{"buffer":0,"byteOffset":100224,"byteLength":33408},{"buffer":0,"byteOffset":133632,"byteLength":21768}],"accessors":[{"bufferView":0,"componentType":5126,"count":4176,"type":"VEC3","min":[-0.597608,-0.010727,-0.281552],"max":[0.707393,1.422045,0.281362]},{"bufferView":1,"componentType":5126,"count":4176,"type":"VEC3"},{"bufferView":2,"componentType":5126,"count":4176,"type":"VEC2"},{"bufferView":3,"componentType":5125,"count":5442,"type":"SCALAR"}]}