{"asset":{"version":"2.0","generator":"obj-to-plant-gltf.js (HumanityOS, Quaternius CC0 source)"},"scene":0,"scenes":[{"nodes":[0]}],"nodes":[{"mesh":0,"name":"rice_4"}],"meshes":[{"name":"rice_4","primitives":[{"attributes":{"POSITION":0,"NORMAL":1,"TEXCOORD_0":2},"indices":3,"material":0}]}],"materials":[{"name":"palette","pbrMetallicRoughness":{"baseColorTexture":{"index":0},"metallicFactor":0,"roughnessFactor":0.9}}],"textures":[{"sampler":0,"source":0}],"samplers":[{"magFilter":9728,"minFilter":9728,"wrapS":33071,"wrapT":33071}],"images":[{"uri":"rice_4_palette.png"}],"buffers":[{"uri":"rice_4.bin","byteLength":149808}],"bufferViews":[{"buffer":0,"byteOffset":0,"byteLength":47448},{"buffer":0,"byteOffset":47448,"byteLength":47448},{"buffer":0,"byteOffset":94896,"byteLength":31632},{"buffer":0,"byteOffset":126528,"byteLength":23280}],"accessors":[{"bufferView":0,"componentType":5126,"count":3954,"type":"VEC3","min":[-0.379089,-0.037522,-0.336026],"max":[0.399494,0.915933,0.544817]},{"bufferView":1,"componentType":5126,"count":3954,"type":"VEC3"},{"bufferView":2,"componentType":5126,"count":3954,"type":"VEC2"},{"bufferView":3,"componentType":5125,"count":5820,"type":"SCALAR"}]}