{"asset":{"version":"2.0","generator":"obj-to-plant-gltf.js (HumanityOS, Quaternius CC0 source)"},"scene":0,"scenes":[{"nodes":[0]}],"nodes":[{"mesh":0,"name":"bamboo_3"}],"meshes":[{"name":"bamboo_3","primitives":[{"attributes":{"POSITION":0,"NORMAL":1,"TEXCOORD_0":2},"indices":3,"material":0}]}],"materials":[{"name":"palette","pbrMetallicRoughness":{"baseColorTexture":{"index":0},"metallicFactor":0,"roughnessFactor":0.9}}],"textures":[{"sampler":0,"source":0}],"samplers":[{"magFilter":9728,"minFilter":9728,"wrapS":33071,"wrapT":33071}],"images":[{"uri":"bamboo_3_palette.png"}],"buffers":[{"uri":"bamboo_3.bin","byteLength":34640}],"bufferViews":[{"buffer":0,"byteOffset":0,"byteLength":10776},{"buffer":0,"byteOffset":10776,"byteLength":10776},{"buffer":0,"byteOffset":21552,"byteLength":7184},{"buffer":0,"byteOffset":28736,"byteLength":5904}],"accessors":[{"bufferView":0,"componentType":5126,"count":898,"type":"VEC3","min":[-0.148646,-0.004029,-0.167317],"max":[0.189434,1.542653,0.190675]},{"bufferView":1,"componentType":5126,"count":898,"type":"VEC3"},{"bufferView":2,"componentType":5126,"count":898,"type":"VEC2"},{"bufferView":3,"componentType":5125,"count":1476,"type":"SCALAR"}]}