{"asset":{"version":"2.0","generator":"obj-to-plant-gltf.js (HumanityOS, Quaternius CC0 source)"},"scene":0,"scenes":[{"nodes":[0]}],"nodes":[{"mesh":0,"name":"desk"}],"meshes":[{"name":"desk","primitives":[{"attributes":{"POSITION":0,"NORMAL":1,"TEXCOORD_0":2},"indices":3,"material":0}]}],"materials":[{"name":"palette","pbrMetallicRoughness":{"baseColorTexture":{"index":0},"metallicFactor":0,"roughnessFactor":0.9}}],"textures":[{"sampler":0,"source":0}],"samplers":[{"magFilter":9728,"minFilter":9728,"wrapS":33071,"wrapT":33071}],"images":[{"uri":"desk_palette.png"}],"buffers":[{"uri":"desk.bin","byteLength":14080}],"bufferViews":[{"buffer":0,"byteOffset":0,"byteLength":3696},{"buffer":0,"byteOffset":3696,"byteLength":3696},{"buffer":0,"byteOffset":7392,"byteLength":2464},{"buffer":0,"byteOffset":9856,"byteLength":4224}],"accessors":[{"bufferView":0,"componentType":5126,"count":308,"type":"VEC3","min":[-0.7244754,0,-0.0123],"max":[0.01,0.3844076,0.38]},{"bufferView":1,"componentType":5126,"count":308,"type":"VEC3"},{"bufferView":2,"componentType":5126,"count":308,"type":"VEC2"},{"bufferView":3,"componentType":5125,"count":1056,"type":"SCALAR"}]}