{"asset":{"version":"2.0","generator":"obj-to-plant-gltf.js (HumanityOS, Quaternius CC0 source)"},"scene":0,"scenes":[{"nodes":[0]}],"nodes":[{"mesh":0,"name":"carrot_2"}],"meshes":[{"name":"carrot_2","primitives":[{"attributes":{"POSITION":0,"NORMAL":1,"TEXCOORD_0":2},"indices":3,"material":0}]}],"materials":[{"name":"palette","pbrMetallicRoughness":{"baseColorTexture":{"index":0},"metallicFactor":0,"roughnessFactor":0.9}}],"textures":[{"sampler":0,"source":0}],"samplers":[{"magFilter":9728,"minFilter":9728,"wrapS":33071,"wrapT":33071}],"images":[{"uri":"carrot_2_palette.png"}],"buffers":[{"uri":"carrot_2.bin","byteLength":20872}],"bufferViews":[{"buffer":0,"byteOffset":0,"byteLength":6648},{"buffer":0,"byteOffset":6648,"byteLength":6648},{"buffer":0,"byteOffset":13296,"byteLength":4432},{"buffer":0,"byteOffset":17728,"byteLength":3144}],"accessors":[{"bufferView":0,"componentType":5126,"count":554,"type":"VEC3","min":[-0.079053,-0.151366,-0.027602],"max":[0.082329,0.161331,0.037896]},{"bufferView":1,"componentType":5126,"count":554,"type":"VEC3"},{"bufferView":2,"componentType":5126,"count":554,"type":"VEC2"},{"bufferView":3,"componentType":5125,"count":786,"type":"SCALAR"}]}