{"asset":{"version":"2.0","generator":"obj-to-plant-gltf.js (HumanityOS, Quaternius CC0 source)"},"scene":0,"scenes":[{"nodes":[0]}],"nodes":[{"mesh":0,"name":"lettuce_4"}],"meshes":[{"name":"lettuce_4","primitives":[{"attributes":{"POSITION":0,"NORMAL":1,"TEXCOORD_0":2},"indices":3,"material":0}]}],"materials":[{"name":"palette","pbrMetallicRoughness":{"baseColorTexture":{"index":0},"metallicFactor":0,"roughnessFactor":0.9}}],"textures":[{"sampler":0,"source":0}],"samplers":[{"magFilter":9728,"minFilter":9728,"wrapS":33071,"wrapT":33071}],"images":[{"uri":"lettuce_4_palette.png"}],"buffers":[{"uri":"lettuce_4.bin","byteLength":110400}],"bufferViews":[{"buffer":0,"byteOffset":0,"byteLength":35136},{"buffer":0,"byteOffset":35136,"byteLength":35136},{"buffer":0,"byteOffset":70272,"byteLength":23424},{"buffer":0,"byteOffset":93696,"byteLength":16704}],"accessors":[{"bufferView":0,"componentType":5126,"count":2928,"type":"VEC3","min":[-0.522001,-0.06695,-0.522],"max":[0.522,0.407252,0.522001]},{"bufferView":1,"componentType":5126,"count":2928,"type":"VEC3"},{"bufferView":2,"componentType":5126,"count":2928,"type":"VEC2"},{"bufferView":3,"componentType":5125,"count":4176,"type":"SCALAR"}]}