{"asset":{"version":"2.0","generator":"obj-to-plant-gltf.js (HumanityOS, Quaternius CC0 source)"},"scene":0,"scenes":[{"nodes":[0]}],"nodes":[{"mesh":0,"name":"bushberries_2"}],"meshes":[{"name":"bushberries_2","primitives":[{"attributes":{"POSITION":0,"NORMAL":1,"TEXCOORD_0":2},"indices":3,"material":0}]}],"materials":[{"name":"palette","pbrMetallicRoughness":{"baseColorTexture":{"index":0},"metallicFactor":0,"roughnessFactor":0.9}}],"textures":[{"sampler":0,"source":0}],"samplers":[{"magFilter":9728,"minFilter":9728,"wrapS":33071,"wrapT":33071}],"images":[{"uri":"bushberries_2_palette.png"}],"buffers":[{"uri":"bushberries_2.bin","byteLength":10576}],"bufferViews":[{"buffer":0,"byteOffset":0,"byteLength":3336},{"buffer":0,"byteOffset":3336,"byteLength":3336},{"buffer":0,"byteOffset":6672,"byteLength":2224},{"buffer":0,"byteOffset":8896,"byteLength":1680}],"accessors":[{"bufferView":0,"componentType":5126,"count":278,"type":"VEC3","min":[-0.310177,-0.008028,-0.234843],"max":[0.282094,0.497601,0.279899]},{"bufferView":1,"componentType":5126,"count":278,"type":"VEC3"},{"bufferView":2,"componentType":5126,"count":278,"type":"VEC2"},{"bufferView":3,"componentType":5125,"count":420,"type":"SCALAR"}]}