{"asset":{"version":"2.0","generator":"obj-to-plant-gltf.js (HumanityOS, Quaternius CC0 source)"},"scene":0,"scenes":[{"nodes":[0]}],"nodes":[{"mesh":0,"name":"corn_4"}],"meshes":[{"name":"corn_4","primitives":[{"attributes":{"POSITION":0,"NORMAL":1,"TEXCOORD_0":2},"indices":3,"material":0}]}],"materials":[{"name":"palette","pbrMetallicRoughness":{"baseColorTexture":{"index":0},"metallicFactor":0,"roughnessFactor":0.9}}],"textures":[{"sampler":0,"source":0}],"samplers":[{"magFilter":9728,"minFilter":9728,"wrapS":33071,"wrapT":33071}],"images":[{"uri":"corn_4_palette.png"}],"buffers":[{"uri":"corn_4.bin","byteLength":76008}],"bufferViews":[{"buffer":0,"byteOffset":0,"byteLength":24192},{"buffer":0,"byteOffset":24192,"byteLength":24192},{"buffer":0,"byteOffset":48384,"byteLength":16128},{"buffer":0,"byteOffset":64512,"byteLength":11496}],"accessors":[{"bufferView":0,"componentType":5126,"count":2016,"type":"VEC3","min":[-0.436688,0.003481,-0.365146],"max":[0.450592,1.970578,0.283851]},{"bufferView":1,"componentType":5126,"count":2016,"type":"VEC3"},{"bufferView":2,"componentType":5126,"count":2016,"type":"VEC2"},{"bufferView":3,"componentType":5125,"count":2874,"type":"SCALAR"}]}