{"asset":{"version":"2.0","generator":"obj-to-plant-gltf.js (HumanityOS, Quaternius CC0 source)"},"scene":0,"scenes":[{"nodes":[0]}],"nodes":[{"mesh":0,"name":"bamboo_crop"}],"meshes":[{"name":"bamboo_crop","primitives":[{"attributes":{"POSITION":0,"NORMAL":1,"TEXCOORD_0":2},"indices":3,"material":0}]}],"materials":[{"name":"palette","pbrMetallicRoughness":{"baseColorTexture":{"index":0},"metallicFactor":0,"roughnessFactor":0.9}}],"textures":[{"sampler":0,"source":0}],"samplers":[{"magFilter":9728,"minFilter":9728,"wrapS":33071,"wrapT":33071}],"images":[{"uri":"bamboo_crop_palette.png"}],"buffers":[{"uri":"bamboo_crop.bin","byteLength":7568}],"bufferViews":[{"buffer":0,"byteOffset":0,"byteLength":2352},{"buffer":0,"byteOffset":2352,"byteLength":2352},{"buffer":0,"byteOffset":4704,"byteLength":1568},{"buffer":0,"byteOffset":6272,"byteLength":1296}],"accessors":[{"bufferView":0,"componentType":5126,"count":196,"type":"VEC3","min":[-0.045876,-0.164798,-0.049641],"max":[0.050918,0.161572,0.049641]},{"bufferView":1,"componentType":5126,"count":196,"type":"VEC3"},{"bufferView":2,"componentType":5126,"count":196,"type":"VEC2"},{"bufferView":3,"componentType":5125,"count":324,"type":"SCALAR"}]}