{"asset":{"version":"2.0","generator":"obj-to-plant-gltf.js (HumanityOS, Quaternius CC0 source)"},"scene":0,"scenes":[{"nodes":[0]}],"nodes":[{"mesh":0,"name":"apple_4"}],"meshes":[{"name":"apple_4","primitives":[{"attributes":{"POSITION":0,"NORMAL":1,"TEXCOORD_0":2},"indices":3,"material":0}]}],"materials":[{"name":"palette","pbrMetallicRoughness":{"baseColorTexture":{"index":0},"metallicFactor":0,"roughnessFactor":0.9}}],"textures":[{"sampler":0,"source":0}],"samplers":[{"magFilter":9728,"minFilter":9728,"wrapS":33071,"wrapT":33071}],"images":[{"uri":"apple_4_palette.png"}],"buffers":[{"uri":"apple_4.bin","byteLength":125760}],"bufferViews":[{"buffer":0,"byteOffset":0,"byteLength":40032},{"buffer":0,"byteOffset":40032,"byteLength":40032},{"buffer":0,"byteOffset":80064,"byteLength":26688},{"buffer":0,"byteOffset":106752,"byteLength":19008}],"accessors":[{"bufferView":0,"componentType":5126,"count":3336,"type":"VEC3","min":[-0.682348,-0.000006,-1.102151],"max":[1.181195,2.762721,0.476496]},{"bufferView":1,"componentType":5126,"count":3336,"type":"VEC3"},{"bufferView":2,"componentType":5126,"count":3336,"type":"VEC2"},{"bufferView":3,"componentType":5125,"count":4752,"type":"SCALAR"}]}