{"asset":{"version":"2.0","generator":"obj-to-plant-gltf.js (HumanityOS, Quaternius CC0 source)"},"scene":0,"scenes":[{"nodes":[0]}],"nodes":[{"mesh":0,"name":"apple_3"}],"meshes":[{"name":"apple_3","primitives":[{"attributes":{"POSITION":0,"NORMAL":1,"TEXCOORD_0":2},"indices":3,"material":0}]}],"materials":[{"name":"palette","pbrMetallicRoughness":{"baseColorTexture":{"index":0},"metallicFactor":0,"roughnessFactor":0.9}}],"textures":[{"sampler":0,"source":0}],"samplers":[{"magFilter":9728,"minFilter":9728,"wrapS":33071,"wrapT":33071}],"images":[{"uri":"apple_3_palette.png"}],"buffers":[{"uri":"apple_3.bin","byteLength":33768}],"bufferViews":[{"buffer":0,"byteOffset":0,"byteLength":10656},{"buffer":0,"byteOffset":10656,"byteLength":10656},{"buffer":0,"byteOffset":21312,"byteLength":7104},{"buffer":0,"byteOffset":28416,"byteLength":5352}],"accessors":[{"bufferView":0,"componentType":5126,"count":888,"type":"VEC3","min":[-0.421794,-0.000005,-0.721456],"max":[0.744456,2.086544,0.252517]},{"bufferView":1,"componentType":5126,"count":888,"type":"VEC3"},{"bufferView":2,"componentType":5126,"count":888,"type":"VEC2"},{"bufferView":3,"componentType":5125,"count":1338,"type":"SCALAR"}]}