{"asset":{"version":"2.0","generator":"obj-to-plant-gltf.js (HumanityOS, Quaternius CC0 source)"},"scene":0,"scenes":[{"nodes":[0]}],"nodes":[{"mesh":0,"name":"mushroom_3"}],"meshes":[{"name":"mushroom_3","primitives":[{"attributes":{"POSITION":0,"NORMAL":1,"TEXCOORD_0":2},"indices":3,"material":0}]}],"materials":[{"name":"palette","pbrMetallicRoughness":{"baseColorTexture":{"index":0},"metallicFactor":0,"roughnessFactor":0.9}}],"textures":[{"sampler":0,"source":0}],"samplers":[{"magFilter":9728,"minFilter":9728,"wrapS":33071,"wrapT":33071}],"images":[{"uri":"mushroom_3_palette.png"}],"buffers":[{"uri":"mushroom_3.bin","byteLength":72480}],"bufferViews":[{"buffer":0,"byteOffset":0,"byteLength":23040},{"buffer":0,"byteOffset":23040,"byteLength":23040},{"buffer":0,"byteOffset":46080,"byteLength":15360},{"buffer":0,"byteOffset":61440,"byteLength":11040}],"accessors":[{"bufferView":0,"componentType":5126,"count":1920,"type":"VEC3","min":[-0.122673,0,-0.122209],"max":[0.122209,0.285663,0.122209]},{"bufferView":1,"componentType":5126,"count":1920,"type":"VEC3"},{"bufferView":2,"componentType":5126,"count":1920,"type":"VEC2"},{"bufferView":3,"componentType":5125,"count":2760,"type":"SCALAR"}]}