{"asset":{"version":"2.0","generator":"obj-to-plant-gltf.js (HumanityOS, Quaternius CC0 source)"},"scene":0,"scenes":[{"nodes":[0]}],"nodes":[{"mesh":0,"name":"wheat_crop"}],"meshes":[{"name":"wheat_crop","primitives":[{"attributes":{"POSITION":0,"NORMAL":1,"TEXCOORD_0":2},"indices":3,"material":0}]}],"materials":[{"name":"palette","pbrMetallicRoughness":{"baseColorTexture":{"index":0},"metallicFactor":0,"roughnessFactor":0.9}}],"textures":[{"sampler":0,"source":0}],"samplers":[{"magFilter":9728,"minFilter":9728,"wrapS":33071,"wrapT":33071}],"images":[{"uri":"wheat_crop_palette.png"}],"buffers":[{"uri":"wheat_crop.bin","byteLength":45360}],"bufferViews":[{"buffer":0,"byteOffset":0,"byteLength":14256},{"buffer":0,"byteOffset":14256,"byteLength":14256},{"buffer":0,"byteOffset":28512,"byteLength":9504},{"buffer":0,"byteOffset":38016,"byteLength":7344}],"accessors":[{"bufferView":0,"componentType":5126,"count":1188,"type":"VEC3","min":[-0.275064,-0.052398,-0.362561],"max":[0.315538,0.052398,0.395813]},{"bufferView":1,"componentType":5126,"count":1188,"type":"VEC3"},{"bufferView":2,"componentType":5126,"count":1188,"type":"VEC2"},{"bufferView":3,"componentType":5125,"count":1836,"type":"SCALAR"}]}