{"asset":{"version":"2.0","generator":"obj-to-plant-gltf.js (HumanityOS, Quaternius CC0 source)"},"scene":0,"scenes":[{"nodes":[0]}],"nodes":[{"mesh":0,"name":"beet_crop"}],"meshes":[{"name":"beet_crop","primitives":[{"attributes":{"POSITION":0,"NORMAL":1,"TEXCOORD_0":2},"indices":3,"material":0}]}],"materials":[{"name":"palette","pbrMetallicRoughness":{"baseColorTexture":{"index":0},"metallicFactor":0,"roughnessFactor":0.9}}],"textures":[{"sampler":0,"source":0}],"samplers":[{"magFilter":9728,"minFilter":9728,"wrapS":33071,"wrapT":33071}],"images":[{"uri":"beet_crop_palette.png"}],"buffers":[{"uri":"beet_crop.bin","byteLength":12444}],"bufferViews":[{"buffer":0,"byteOffset":0,"byteLength":3924},{"buffer":0,"byteOffset":3924,"byteLength":3924},{"buffer":0,"byteOffset":7848,"byteLength":2616},{"buffer":0,"byteOffset":10464,"byteLength":1980}],"accessors":[{"bufferView":0,"componentType":5126,"count":327,"type":"VEC3","min":[-0.175571,-0.318274,-0.144798],"max":[0.140041,0.201136,0.170814]},{"bufferView":1,"componentType":5126,"count":327,"type":"VEC3"},{"bufferView":2,"componentType":5126,"count":327,"type":"VEC2"},{"bufferView":3,"componentType":5125,"count":495,"type":"SCALAR"}]}