{"asset":{"version":"2.0","generator":"obj-to-plant-gltf.js (HumanityOS, Quaternius CC0 source)"},"scene":0,"scenes":[{"nodes":[0]}],"nodes":[{"mesh":0,"name":"apple_1"}],"meshes":[{"name":"apple_1","primitives":[{"attributes":{"POSITION":0,"NORMAL":1,"TEXCOORD_0":2},"indices":3,"material":0}]}],"materials":[{"name":"palette","pbrMetallicRoughness":{"baseColorTexture":{"index":0},"metallicFactor":0,"roughnessFactor":0.9}}],"textures":[{"sampler":0,"source":0}],"samplers":[{"magFilter":9728,"minFilter":9728,"wrapS":33071,"wrapT":33071}],"images":[{"uri":"apple_1_palette.png"}],"buffers":[{"uri":"apple_1.bin","byteLength":6208}],"bufferViews":[{"buffer":0,"byteOffset":0,"byteLength":1968},{"buffer":0,"byteOffset":1968,"byteLength":1968},{"buffer":0,"byteOffset":3936,"byteLength":1312},{"buffer":0,"byteOffset":5248,"byteLength":960}],"accessors":[{"bufferView":0,"componentType":5126,"count":164,"type":"VEC3","min":[-0.106262,-0.000345,-0.080744],"max":[0.131501,0.247038,0.025879]},{"bufferView":1,"componentType":5126,"count":164,"type":"VEC3"},{"bufferView":2,"componentType":5126,"count":164,"type":"VEC2"},{"bufferView":3,"componentType":5125,"count":240,"type":"SCALAR"}]}