{"asset":{"version":"2.0","generator":"obj-to-plant-gltf.js (HumanityOS, Quaternius CC0 source)"},"scene":0,"scenes":[{"nodes":[0]}],"nodes":[{"mesh":0,"name":"lettuce_crop"}],"meshes":[{"name":"lettuce_crop","primitives":[{"attributes":{"POSITION":0,"NORMAL":1,"TEXCOORD_0":2},"indices":3,"material":0}]}],"materials":[{"name":"palette","pbrMetallicRoughness":{"baseColorTexture":{"index":0},"metallicFactor":0,"roughnessFactor":0.9}}],"textures":[{"sampler":0,"source":0}],"samplers":[{"magFilter":9728,"minFilter":9728,"wrapS":33071,"wrapT":33071}],"images":[{"uri":"lettuce_crop_palette.png"}],"buffers":[{"uri":"lettuce_crop.bin","byteLength":8000}],"bufferViews":[{"buffer":0,"byteOffset":0,"byteLength":2496},{"buffer":0,"byteOffset":2496,"byteLength":2496},{"buffer":0,"byteOffset":4992,"byteLength":1664},{"buffer":0,"byteOffset":6656,"byteLength":1344}],"accessors":[{"bufferView":0,"componentType":5126,"count":208,"type":"VEC3","min":[-0.202139,-0.023387,-0.202139],"max":[0.202139,0.400416,0.202139]},{"bufferView":1,"componentType":5126,"count":208,"type":"VEC3"},{"bufferView":2,"componentType":5126,"count":208,"type":"VEC2"},{"bufferView":3,"componentType":5125,"count":336,"type":"SCALAR"}]}