{"asset":{"version":"2.0","generator":"obj-to-plant-gltf.js (HumanityOS, Quaternius CC0 source)"},"scene":0,"scenes":[{"nodes":[0]}],"nodes":[{"mesh":0,"name":"flower_2"}],"meshes":[{"name":"flower_2","primitives":[{"attributes":{"POSITION":0,"NORMAL":1,"TEXCOORD_0":2},"indices":3,"material":0}]}],"materials":[{"name":"palette","pbrMetallicRoughness":{"baseColorTexture":{"index":0},"metallicFactor":0,"roughnessFactor":0.9}}],"textures":[{"sampler":0,"source":0}],"samplers":[{"magFilter":9728,"minFilter":9728,"wrapS":33071,"wrapT":33071}],"images":[{"uri":"flower_2_palette.png"}],"buffers":[{"uri":"flower_2.bin","byteLength":3192}],"bufferViews":[{"buffer":0,"byteOffset":0,"byteLength":1008},{"buffer":0,"byteOffset":1008,"byteLength":1008},{"buffer":0,"byteOffset":2016,"byteLength":672},{"buffer":0,"byteOffset":2688,"byteLength":504}],"accessors":[{"bufferView":0,"componentType":5126,"count":84,"type":"VEC3","min":[-0.036217,-0.000308,-0.035119],"max":[0.047677,0.411425,0.01478]},{"bufferView":1,"componentType":5126,"count":84,"type":"VEC3"},{"bufferView":2,"componentType":5126,"count":84,"type":"VEC2"},{"bufferView":3,"componentType":5125,"count":126,"type":"SCALAR"}]}