{"asset":{"version":"2.0","generator":"obj-to-plant-gltf.js (HumanityOS, Quaternius CC0 source)"},"scene":0,"scenes":[{"nodes":[0]}],"nodes":[{"mesh":0,"name":"lettuce_harvested"}],"meshes":[{"name":"lettuce_harvested","primitives":[{"attributes":{"POSITION":0,"NORMAL":1,"TEXCOORD_0":2},"indices":3,"material":0}]}],"materials":[{"name":"palette","pbrMetallicRoughness":{"baseColorTexture":{"index":0},"metallicFactor":0,"roughnessFactor":0.9}}],"textures":[{"sampler":0,"source":0}],"samplers":[{"magFilter":9728,"minFilter":9728,"wrapS":33071,"wrapT":33071}],"images":[{"uri":"lettuce_harvested_palette.png"}],"buffers":[{"uri":"lettuce_harvested.bin","byteLength":102400}],"bufferViews":[{"buffer":0,"byteOffset":0,"byteLength":32640},{"buffer":0,"byteOffset":32640,"byteLength":32640},{"buffer":0,"byteOffset":65280,"byteLength":21760},{"buffer":0,"byteOffset":87040,"byteLength":15360}],"accessors":[{"bufferView":0,"componentType":5126,"count":2720,"type":"VEC3","min":[-0.522001,-0.06695,-0.522],"max":[0.522,0.407252,0.522001]},{"bufferView":1,"componentType":5126,"count":2720,"type":"VEC3"},{"bufferView":2,"componentType":5126,"count":2720,"type":"VEC2"},{"bufferView":3,"componentType":5125,"count":3840,"type":"SCALAR"}]}