{"asset":{"version":"2.0","generator":"obj-to-plant-gltf.js (HumanityOS, Quaternius CC0 source)"},"scene":0,"scenes":[{"nodes":[0]}],"nodes":[{"mesh":0,"name":"corn_3"}],"meshes":[{"name":"corn_3","primitives":[{"attributes":{"POSITION":0,"NORMAL":1,"TEXCOORD_0":2},"indices":3,"material":0}]}],"materials":[{"name":"palette","pbrMetallicRoughness":{"baseColorTexture":{"index":0},"metallicFactor":0,"roughnessFactor":0.9}}],"textures":[{"sampler":0,"source":0}],"samplers":[{"magFilter":9728,"minFilter":9728,"wrapS":33071,"wrapT":33071}],"images":[{"uri":"corn_3_palette.png"}],"buffers":[{"uri":"corn_3.bin","byteLength":26832}],"bufferViews":[{"buffer":0,"byteOffset":0,"byteLength":8496},{"buffer":0,"byteOffset":8496,"byteLength":8496},{"buffer":0,"byteOffset":16992,"byteLength":5664},{"buffer":0,"byteOffset":22656,"byteLength":4176}],"accessors":[{"bufferView":0,"componentType":5126,"count":708,"type":"VEC3","min":[-0.319195,-0.000114,-0.252167],"max":[0.355492,1.246759,0.320398]},{"bufferView":1,"componentType":5126,"count":708,"type":"VEC3"},{"bufferView":2,"componentType":5126,"count":708,"type":"VEC2"},{"bufferView":3,"componentType":5125,"count":1044,"type":"SCALAR"}]}