{"asset":{"version":"2.0","generator":"obj-to-plant-gltf.js (HumanityOS, Quaternius CC0 source)"},"scene":0,"scenes":[{"nodes":[0]}],"nodes":[{"mesh":0,"name":"mushroom_2"}],"meshes":[{"name":"mushroom_2","primitives":[{"attributes":{"POSITION":0,"NORMAL":1,"TEXCOORD_0":2},"indices":3,"material":0}]}],"materials":[{"name":"palette","pbrMetallicRoughness":{"baseColorTexture":{"index":0},"metallicFactor":0,"roughnessFactor":0.9}}],"textures":[{"sampler":0,"source":0}],"samplers":[{"magFilter":9728,"minFilter":9728,"wrapS":33071,"wrapT":33071}],"images":[{"uri":"mushroom_2_palette.png"}],"buffers":[{"uri":"mushroom_2.bin","byteLength":48208}],"bufferViews":[{"buffer":0,"byteOffset":0,"byteLength":15360},{"buffer":0,"byteOffset":15360,"byteLength":15360},{"buffer":0,"byteOffset":30720,"byteLength":10240},{"buffer":0,"byteOffset":40960,"byteLength":7248}],"accessors":[{"bufferView":0,"componentType":5126,"count":1280,"type":"VEC3","min":[-0.069771,-0.000725,-0.071584],"max":[0.071751,0.222981,0.069938]},{"bufferView":1,"componentType":5126,"count":1280,"type":"VEC3"},{"bufferView":2,"componentType":5126,"count":1280,"type":"VEC2"},{"bufferView":3,"componentType":5125,"count":1812,"type":"SCALAR"}]}