{"asset":{"version":"2.0","generator":"obj-to-plant-gltf.js (HumanityOS, Quaternius CC0 source)"},"scene":0,"scenes":[{"nodes":[0]}],"nodes":[{"mesh":0,"name":"grass_2"}],"meshes":[{"name":"grass_2","primitives":[{"attributes":{"POSITION":0,"NORMAL":1,"TEXCOORD_0":2},"indices":3,"material":0}]}],"materials":[{"name":"palette","pbrMetallicRoughness":{"baseColorTexture":{"index":0},"metallicFactor":0,"roughnessFactor":0.9}}],"textures":[{"sampler":0,"source":0}],"samplers":[{"magFilter":9728,"minFilter":9728,"wrapS":33071,"wrapT":33071}],"images":[{"uri":"grass_2_palette.png"}],"buffers":[{"uri":"grass_2.bin","byteLength":5120}],"bufferViews":[{"buffer":0,"byteOffset":0,"byteLength":1632},{"buffer":0,"byteOffset":1632,"byteLength":1632},{"buffer":0,"byteOffset":3264,"byteLength":1088},{"buffer":0,"byteOffset":4352,"byteLength":768}],"accessors":[{"bufferView":0,"componentType":5126,"count":136,"type":"VEC3","min":[-0.073182,-0.015862,-0.119389],"max":[0.176886,0.507798,0.153874]},{"bufferView":1,"componentType":5126,"count":136,"type":"VEC3"},{"bufferView":2,"componentType":5126,"count":136,"type":"VEC2"},{"bufferView":3,"componentType":5125,"count":192,"type":"SCALAR"}]}