{"asset":{"version":"2.0","generator":"obj-to-plant-gltf.js (HumanityOS, Quaternius CC0 source)"},"scene":0,"scenes":[{"nodes":[0]}],"nodes":[{"mesh":0,"name":"kitchencabinet"}],"meshes":[{"name":"kitchencabinet","primitives":[{"attributes":{"POSITION":0,"NORMAL":1,"TEXCOORD_0":2},"indices":3,"material":0}]}],"materials":[{"name":"palette","pbrMetallicRoughness":{"baseColorTexture":{"index":0},"metallicFactor":0,"roughnessFactor":0.9}}],"textures":[{"sampler":0,"source":0}],"samplers":[{"magFilter":9728,"minFilter":9728,"wrapS":33071,"wrapT":33071}],"images":[{"uri":"kitchencabinet_palette.png"}],"buffers":[{"uri":"kitchencabinet.bin","byteLength":8144}],"bufferViews":[{"buffer":0,"byteOffset":0,"byteLength":2208},{"buffer":0,"byteOffset":2208,"byteLength":2208},{"buffer":0,"byteOffset":4416,"byteLength":1472},{"buffer":0,"byteOffset":5888,"byteLength":2256}],"accessors":[{"bufferView":0,"componentType":5126,"count":184,"type":"VEC3","min":[-0.43,0,0],"max":[0,0.45,0.45]},{"bufferView":1,"componentType":5126,"count":184,"type":"VEC3"},{"bufferView":2,"componentType":5126,"count":184,"type":"VEC2"},{"bufferView":3,"componentType":5125,"count":564,"type":"SCALAR"}]}