{"asset":{"version":"2.0","generator":"obj-to-plant-gltf.js (HumanityOS, Quaternius CC0 source)"},"scene":0,"scenes":[{"nodes":[0]}],"nodes":[{"mesh":0,"name":"bookcasecloseddoors"}],"meshes":[{"name":"bookcasecloseddoors","primitives":[{"attributes":{"POSITION":0,"NORMAL":1,"TEXCOORD_0":2},"indices":3,"material":0}]}],"materials":[{"name":"palette","pbrMetallicRoughness":{"baseColorTexture":{"index":0},"metallicFactor":0,"roughnessFactor":0.9}}],"textures":[{"sampler":0,"source":0}],"samplers":[{"magFilter":9728,"minFilter":9728,"wrapS":33071,"wrapT":33071}],"images":[{"uri":"bookcasecloseddoors_palette.png"}],"buffers":[{"uri":"bookcasecloseddoors.bin","byteLength":21216}],"bufferViews":[{"buffer":0,"byteOffset":0,"byteLength":5544},{"buffer":0,"byteOffset":5544,"byteLength":5544},{"buffer":0,"byteOffset":11088,"byteLength":3696},{"buffer":0,"byteOffset":14784,"byteLength":6432}],"accessors":[{"bufferView":0,"componentType":5126,"count":462,"type":"VEC3","min":[-0.4,0,0],"max":[0,0.85,0.25]},{"bufferView":1,"componentType":5126,"count":462,"type":"VEC3"},{"bufferView":2,"componentType":5126,"count":462,"type":"VEC2"},{"bufferView":3,"componentType":5125,"count":1608,"type":"SCALAR"}]}