{"asset":{"version":"2.0","generator":"obj-to-plant-gltf.js (HumanityOS, Quaternius CC0 source)"},"scene":0,"scenes":[{"nodes":[0]}],"nodes":[{"mesh":0,"name":"orange_4"}],"meshes":[{"name":"orange_4","primitives":[{"attributes":{"POSITION":0,"NORMAL":1,"TEXCOORD_0":2},"indices":3,"material":0}]}],"materials":[{"name":"palette","pbrMetallicRoughness":{"baseColorTexture":{"index":0},"metallicFactor":0,"roughnessFactor":0.9}}],"textures":[{"sampler":0,"source":0}],"samplers":[{"magFilter":9728,"minFilter":9728,"wrapS":33071,"wrapT":33071}],"images":[{"uri":"orange_4_palette.png"}],"buffers":[{"uri":"orange_4.bin","byteLength":99024}],"bufferViews":[{"buffer":0,"byteOffset":0,"byteLength":31536},{"buffer":0,"byteOffset":31536,"byteLength":31536},{"buffer":0,"byteOffset":63072,"byteLength":21024},{"buffer":0,"byteOffset":84096,"byteLength":14928}],"accessors":[{"bufferView":0,"componentType":5126,"count":2628,"type":"VEC3","min":[-0.682348,-0.000006,-0.476496],"max":[1.181195,2.762721,1.102151]},{"bufferView":1,"componentType":5126,"count":2628,"type":"VEC3"},{"bufferView":2,"componentType":5126,"count":2628,"type":"VEC2"},{"bufferView":3,"componentType":5125,"count":3732,"type":"SCALAR"}]}