{"asset":{"version":"2.0","generator":"obj-to-plant-gltf.js (HumanityOS, Quaternius CC0 source)"},"scene":0,"scenes":[{"nodes":[0]}],"nodes":[{"mesh":0,"name":"cactus_2"}],"meshes":[{"name":"cactus_2","primitives":[{"attributes":{"POSITION":0,"NORMAL":1,"TEXCOORD_0":2},"indices":3,"material":0}]}],"materials":[{"name":"palette","pbrMetallicRoughness":{"baseColorTexture":{"index":0},"metallicFactor":0,"roughnessFactor":0.9}}],"textures":[{"sampler":0,"source":0}],"samplers":[{"magFilter":9728,"minFilter":9728,"wrapS":33071,"wrapT":33071}],"images":[{"uri":"cactus_2_palette.png"}],"buffers":[{"uri":"cactus_2.bin","byteLength":19024}],"bufferViews":[{"buffer":0,"byteOffset":0,"byteLength":6144},{"buffer":0,"byteOffset":6144,"byteLength":6144},{"buffer":0,"byteOffset":12288,"byteLength":4096},{"buffer":0,"byteOffset":16384,"byteLength":2640}],"accessors":[{"bufferView":0,"componentType":5126,"count":512,"type":"VEC3","min":[-0.154491,-0.007275,-0.151769],"max":[0.143271,0.370593,0.149339]},{"bufferView":1,"componentType":5126,"count":512,"type":"VEC3"},{"bufferView":2,"componentType":5126,"count":512,"type":"VEC2"},{"bufferView":3,"componentType":5125,"count":660,"type":"SCALAR"}]}