{"asset":{"version":"2.0","generator":"obj-to-plant-gltf.js (HumanityOS, Quaternius CC0 source)"},"scene":0,"scenes":[{"nodes":[0]}],"nodes":[{"mesh":0,"name":"wheat_2"}],"meshes":[{"name":"wheat_2","primitives":[{"attributes":{"POSITION":0,"NORMAL":1,"TEXCOORD_0":2},"indices":3,"material":0}]}],"materials":[{"name":"palette","pbrMetallicRoughness":{"baseColorTexture":{"index":0},"metallicFactor":0,"roughnessFactor":0.9}}],"textures":[{"sampler":0,"source":0}],"samplers":[{"magFilter":9728,"minFilter":9728,"wrapS":33071,"wrapT":33071}],"images":[{"uri":"wheat_2_palette.png"}],"buffers":[{"uri":"wheat_2.bin","byteLength":9224}],"bufferViews":[{"buffer":0,"byteOffset":0,"byteLength":2928},{"buffer":0,"byteOffset":2928,"byteLength":2928},{"buffer":0,"byteOffset":5856,"byteLength":1952},{"buffer":0,"byteOffset":7808,"byteLength":1416}],"accessors":[{"bufferView":0,"componentType":5126,"count":244,"type":"VEC3","min":[-0.043499,0,-0.053892],"max":[0.028941,0.538891,0.07058]},{"bufferView":1,"componentType":5126,"count":244,"type":"VEC3"},{"bufferView":2,"componentType":5126,"count":244,"type":"VEC2"},{"bufferView":3,"componentType":5125,"count":354,"type":"SCALAR"}]}