{"asset":{"version":"2.0","generator":"obj-to-plant-gltf.js (HumanityOS, Quaternius CC0 source)"},"scene":0,"scenes":[{"nodes":[0]}],"nodes":[{"mesh":0,"name":"bushberries_harvested"}],"meshes":[{"name":"bushberries_harvested","primitives":[{"attributes":{"POSITION":0,"NORMAL":1,"TEXCOORD_0":2},"indices":3,"material":0}]}],"materials":[{"name":"palette","pbrMetallicRoughness":{"baseColorTexture":{"index":0},"metallicFactor":0,"roughnessFactor":0.9}}],"textures":[{"sampler":0,"source":0}],"samplers":[{"magFilter":9728,"minFilter":9728,"wrapS":33071,"wrapT":33071}],"images":[{"uri":"bushberries_harvested_palette.png"}],"buffers":[{"uri":"bushberries_harvested.bin","byteLength":27664}],"bufferViews":[{"buffer":0,"byteOffset":0,"byteLength":8736},{"buffer":0,"byteOffset":8736,"byteLength":8736},{"buffer":0,"byteOffset":17472,"byteLength":5824},{"buffer":0,"byteOffset":23296,"byteLength":4368}],"accessors":[{"bufferView":0,"componentType":5126,"count":728,"type":"VEC3","min":[-0.861082,-0.032125,-0.650643],"max":[0.856558,1.214142,0.668952]},{"bufferView":1,"componentType":5126,"count":728,"type":"VEC3"},{"bufferView":2,"componentType":5126,"count":728,"type":"VEC2"},{"bufferView":3,"componentType":5125,"count":1092,"type":"SCALAR"}]}