{"asset":{"version":"2.0","generator":"obj-to-plant-gltf.js (HumanityOS, Quaternius CC0 source)"},"scene":0,"scenes":[{"nodes":[0]}],"nodes":[{"mesh":0,"name":"tomato_3"}],"meshes":[{"name":"tomato_3","primitives":[{"attributes":{"POSITION":0,"NORMAL":1,"TEXCOORD_0":2},"indices":3,"material":0}]}],"materials":[{"name":"palette","pbrMetallicRoughness":{"baseColorTexture":{"index":0},"metallicFactor":0,"roughnessFactor":0.9}}],"textures":[{"sampler":0,"source":0}],"samplers":[{"magFilter":9728,"minFilter":9728,"wrapS":33071,"wrapT":33071}],"images":[{"uri":"tomato_3_palette.png"}],"buffers":[{"uri":"tomato_3.bin","byteLength":95032}],"bufferViews":[{"buffer":0,"byteOffset":0,"byteLength":30264},{"buffer":0,"byteOffset":30264,"byteLength":30264},{"buffer":0,"byteOffset":60528,"byteLength":20176},{"buffer":0,"byteOffset":80704,"byteLength":14328}],"accessors":[{"bufferView":0,"componentType":5126,"count":2522,"type":"VEC3","min":[-0.300033,-0.001507,-0.271994],"max":[0.340879,1.42645,0.31432]},{"bufferView":1,"componentType":5126,"count":2522,"type":"VEC3"},{"bufferView":2,"componentType":5126,"count":2522,"type":"VEC2"},{"bufferView":3,"componentType":5125,"count":3582,"type":"SCALAR"}]}