{"asset":{"version":"2.0","generator":"obj-to-plant-gltf.js (HumanityOS, Quaternius CC0 source)"},"scene":0,"scenes":[{"nodes":[0]}],"nodes":[{"mesh":0,"name":"cactus_harvested"}],"meshes":[{"name":"cactus_harvested","primitives":[{"attributes":{"POSITION":0,"NORMAL":1,"TEXCOORD_0":2},"indices":3,"material":0}]}],"materials":[{"name":"palette","pbrMetallicRoughness":{"baseColorTexture":{"index":0},"metallicFactor":0,"roughnessFactor":0.9}}],"textures":[{"sampler":0,"source":0}],"samplers":[{"magFilter":9728,"minFilter":9728,"wrapS":33071,"wrapT":33071}],"images":[{"uri":"cactus_harvested_palette.png"}],"buffers":[{"uri":"cactus_harvested.bin","byteLength":115464}],"bufferViews":[{"buffer":0,"byteOffset":0,"byteLength":37440},{"buffer":0,"byteOffset":37440,"byteLength":37440},{"buffer":0,"byteOffset":74880,"byteLength":24960},{"buffer":0,"byteOffset":99840,"byteLength":15624}],"accessors":[{"bufferView":0,"componentType":5126,"count":3120,"type":"VEC3","min":[-0.512958,-0.010727,-0.281552],"max":[0.581356,1.245782,0.281362]},{"bufferView":1,"componentType":5126,"count":3120,"type":"VEC3"},{"bufferView":2,"componentType":5126,"count":3120,"type":"VEC2"},{"bufferView":3,"componentType":5125,"count":3906,"type":"SCALAR"}]}