{"asset":{"version":"2.0","generator":"obj-to-plant-gltf.js (HumanityOS, Quaternius CC0 source)"},"scene":0,"scenes":[{"nodes":[0]}],"nodes":[{"mesh":0,"name":"flower_4"}],"meshes":[{"name":"flower_4","primitives":[{"attributes":{"POSITION":0,"NORMAL":1,"TEXCOORD_0":2},"indices":3,"material":0}]}],"materials":[{"name":"palette","pbrMetallicRoughness":{"baseColorTexture":{"index":0},"metallicFactor":0,"roughnessFactor":0.9}}],"textures":[{"sampler":0,"source":0}],"samplers":[{"magFilter":9728,"minFilter":9728,"wrapS":33071,"wrapT":33071}],"images":[{"uri":"flower_4_palette.png"}],"buffers":[{"uri":"flower_4.bin","byteLength":17480}],"bufferViews":[{"buffer":0,"byteOffset":0,"byteLength":5520},{"buffer":0,"byteOffset":5520,"byteLength":5520},{"buffer":0,"byteOffset":11040,"byteLength":3680},{"buffer":0,"byteOffset":14720,"byteLength":2760}],"accessors":[{"bufferView":0,"componentType":5126,"count":460,"type":"VEC3","min":[-0.150307,-0.00047,-0.150589],"max":[0.141469,0.82048,0.142058]},{"bufferView":1,"componentType":5126,"count":460,"type":"VEC3"},{"bufferView":2,"componentType":5126,"count":460,"type":"VEC2"},{"bufferView":3,"componentType":5125,"count":690,"type":"SCALAR"}]}