{"asset":{"version":"2.0","generator":"obj-to-plant-gltf.js (HumanityOS, Quaternius CC0 source)"},"scene":0,"scenes":[{"nodes":[0]}],"nodes":[{"mesh":0,"name":"wheat_4"}],"meshes":[{"name":"wheat_4","primitives":[{"attributes":{"POSITION":0,"NORMAL":1,"TEXCOORD_0":2},"indices":3,"material":0}]}],"materials":[{"name":"palette","pbrMetallicRoughness":{"baseColorTexture":{"index":0},"metallicFactor":0,"roughnessFactor":0.9}}],"textures":[{"sampler":0,"source":0}],"samplers":[{"magFilter":9728,"minFilter":9728,"wrapS":33071,"wrapT":33071}],"images":[{"uri":"wheat_4_palette.png"}],"buffers":[{"uri":"wheat_4.bin","byteLength":7496}],"bufferViews":[{"buffer":0,"byteOffset":0,"byteLength":2352},{"buffer":0,"byteOffset":2352,"byteLength":2352},{"buffer":0,"byteOffset":4704,"byteLength":1568},{"buffer":0,"byteOffset":6272,"byteLength":1224}],"accessors":[{"bufferView":0,"componentType":5126,"count":196,"type":"VEC3","min":[-0.082665,0,-0.040682],"max":[0.015179,0.947993,0.015178]},{"bufferView":1,"componentType":5126,"count":196,"type":"VEC3"},{"bufferView":2,"componentType":5126,"count":196,"type":"VEC2"},{"bufferView":3,"componentType":5125,"count":306,"type":"SCALAR"}]}